<svg width="79" height="79" viewBox="0 0 79 79" fill="none" xmlns="http://www.w3.org/2000/svg">
    <rect width="79" height="79" rx="8" fill="#0454A0"/>
    <path d="M34 39.5L37.6667 43.1667L45 35.8333M39.5 23L43.0019 26.431L47.75 25.2106L49.0671 29.9328L53.7894 31.25L52.5689 35.9982L56 39.5L52.5689 43.0019L53.7894 47.75L49.0671 49.0671L47.75 53.7894L43.0019 52.5689L39.5 56L35.9982 52.5689L31.25 53.7894L29.9328 49.0671L25.2106 47.75L26.431 43.0019L23 39.5L26.431 35.9982L25.2106 31.25L29.9328 29.9328L31.25 25.2106L35.9982 26.431L39.5 23Z" stroke="white" stroke-width="3" stroke-linecap="round" stroke-linejoin="round"/>
</svg>
