<svg width="626" height="97" viewBox="0 0 626 97" fill="none" xmlns="http://www.w3.org/2000/svg">
<path d="M85.932 3.58405C87.648 11.5041 85.404 21.1401 80.652 33.5481L56.232 94.6641H37.488L1.32 3.58405H21.648L46.992 70.7721L63.096 28.7961C66.924 18.6321 68.376 10.5801 66.924 3.58405H85.932ZM123.791 96.2481C103.199 96.2481 87.6233 81.0681 87.6233 61.0041C87.6233 40.9401 103.199 25.7601 123.791 25.7601C144.383 25.7601 159.959 40.9401 159.959 61.0041C159.959 81.0681 144.383 96.2481 123.791 96.2481ZM123.791 79.6161C134.483 79.6161 142.271 71.5641 142.271 61.0041C142.271 50.4441 134.483 42.3921 123.791 42.3921C113.231 42.3921 105.311 50.4441 105.311 61.0041C105.311 71.5641 113.231 79.6161 123.791 79.6161ZM203.892 79.6161C212.604 79.6161 221.184 76.4481 226.728 71.0361V89.2521C220.788 93.7401 211.68 96.2481 202.572 96.2481C193.2 96.2481 184.62 93.6081 178.02 88.5921L170.628 95.7201H167.064V76.0521L200.592 43.8441H167.592V27.3441H224.352V43.8441L190.296 76.7121C194.388 78.5601 199.008 79.6161 203.892 79.6161Z" fill="#334155"/>
<path d="M341.307 77.5041H345.003V94.6641H339.327C326.787 94.6641 317.547 89.7801 311.343 80.1441L296.823 60.3441L287.847 71.0361V94.6641H269.631V3.58405H287.847V44.2401L322.035 3.58405H344.475L309.099 45.6921L327.051 69.4521C330.879 74.7321 335.631 77.5041 341.307 77.5041ZM420.675 78.0321H423.447V94.6641H419.091C401.271 94.6641 391.899 84.6321 391.899 68.0001C391.899 61.6641 393.483 54.9321 396.915 48.0681L376.851 45.4281L367.479 94.6641H350.583L361.143 41.4681C357.579 39.2241 355.335 35.0001 355.335 30.3801C355.335 23.9121 359.955 19.4241 366.687 19.4241C373.419 19.4241 377.907 23.6481 378.567 29.1921L421.071 34.2081V38.3001C413.679 48.7281 409.455 58.1001 409.455 65.8881C409.455 73.6761 413.547 78.0321 420.675 78.0321ZM464.877 10.3161L457.485 19.9521H441.381L454.449 1.07606H475.173L488.241 19.9521H472.137L464.877 10.3161ZM501.045 61.1361C501.045 62.8521 500.913 65.3601 500.517 66.9441H447.057C449.301 75.5241 456.165 81.0681 465.405 81.0681C472.401 81.0681 478.473 78.0321 481.377 73.6761H499.989C494.841 87.1401 481.509 96.2481 465.141 96.2481C444.285 96.2481 428.709 81.0681 428.709 61.0041C428.709 40.9401 444.285 25.7601 464.877 25.7601C485.469 25.7601 501.045 40.9401 501.045 61.1361ZM464.877 40.8081C456.297 40.8081 449.565 46.2201 447.321 54.4041H482.565C480.321 46.2201 473.325 40.8081 464.877 40.8081Z" fill="url(#paint0_linear_4143_7482)"/>
<path d="M569.095 3.89794C575.377 3.89794 580.488 8.52911 580.488 14.2222V33.1725H610.305C616.588 33.1725 621.699 37.8037 621.699 43.4968C621.699 49.1899 616.588 53.8211 610.305 53.8211H580.488V72.7714C580.488 78.4645 575.377 83.0956 569.095 83.0956C562.812 83.0956 557.702 78.4645 557.702 72.7714V53.8211H545.695C539.412 53.8211 534.301 49.1899 534.301 43.4968C534.301 37.8037 539.412 33.1725 545.695 33.1725H557.702V14.2222C557.702 8.52911 562.812 3.89794 569.095 3.89794ZM569.095 0C560.427 0 553.4 6.36734 553.4 14.2222V29.2746H545.695C537.027 29.2746 530 35.6419 530 43.4968C530 51.3517 537.027 57.719 545.695 57.719H553.4V72.7714C553.4 80.6263 560.427 86.9936 569.095 86.9936C577.763 86.9936 584.789 80.6263 584.789 72.7714V57.719H610.305C618.973 57.719 626 51.3517 626 43.4968C626 35.6419 618.973 29.2746 610.305 29.2746H584.789V14.2222C584.789 6.36734 577.763 0 569.095 0Z" fill="url(#paint1_linear_4143_7482)"/>
<defs>
<linearGradient id="paint0_linear_4143_7482" x1="341.686" y1="48.8318" x2="505" y2="48.8318" gradientUnits="userSpaceOnUse">
<stop stop-color="#61C3A8"/>
<stop offset="1" stop-color="#0454A0"/>
</linearGradient>
<linearGradient id="paint1_linear_4143_7482" x1="578" y1="0" x2="578" y2="86.9936" gradientUnits="userSpaceOnUse">
<stop stop-color="#61C3A8"/>
<stop offset="1" stop-color="#0454A0"/>
</linearGradient>
</defs>
</svg>
