<svg width="266" height="42" viewBox="0 0 266 42" fill="none" xmlns="http://www.w3.org/2000/svg">
<path d="M35.154 3.74C35.856 6.98 34.938 10.922 32.994 15.998L23.004 41H15.336L0.54 3.74H8.856L19.224 31.226L25.812 14.054C27.378 9.896 27.972 6.602 27.378 3.74H35.154ZM50.6419 41.648C42.2179 41.648 35.8459 35.438 35.8459 27.23C35.8459 19.022 42.2179 12.812 50.6419 12.812C59.0659 12.812 65.4379 19.022 65.4379 27.23C65.4379 35.438 59.0659 41.648 50.6419 41.648ZM50.6419 34.844C55.0159 34.844 58.2019 31.55 58.2019 27.23C58.2019 22.91 55.0159 19.616 50.6419 19.616C46.3219 19.616 43.0819 22.91 43.0819 27.23C43.0819 31.55 46.3219 34.844 50.6419 34.844ZM83.4102 34.844C86.9742 34.844 90.4842 33.548 92.7522 31.334V38.786C90.3222 40.622 86.5962 41.648 82.8702 41.648C79.0362 41.648 75.5262 40.568 72.8262 38.516L69.8022 41.432H68.3442V33.386L82.0602 20.21H68.5602V13.46H91.7802V20.21L77.8482 33.656C79.5222 34.412 81.4122 34.844 83.4102 34.844Z" fill="#334155"/>
<path d="M139.625 33.98H141.137V41H138.815C133.685 41 129.905 39.002 127.367 35.06L121.427 26.96L117.755 31.334V41H110.303V3.74H117.755V20.372L131.741 3.74H140.921L126.449 20.966L133.793 30.686C135.359 32.846 137.303 33.98 139.625 33.98ZM172.094 34.196H173.228V41H171.446C164.156 41 160.322 36.896 160.322 30.092C160.322 27.5 160.97 24.746 162.374 21.938L154.166 20.858L150.332 41H143.42L147.74 19.238C146.282 18.32 145.364 16.592 145.364 14.702C145.364 12.056 147.254 10.22 150.008 10.22C152.762 10.22 154.598 11.948 154.868 14.216L172.256 16.268V17.942C169.232 22.208 167.504 26.042 167.504 29.228C167.504 32.414 169.178 34.196 172.094 34.196ZM190.177 6.494L187.153 10.436H180.565L185.911 2.714H194.389L199.735 10.436H193.147L190.177 6.494ZM204.973 27.284C204.973 27.986 204.919 29.012 204.757 29.66H182.887C183.805 33.17 186.613 35.438 190.393 35.438C193.255 35.438 195.739 34.196 196.927 32.414H204.541C202.435 37.922 196.981 41.648 190.285 41.648C181.753 41.648 175.381 35.438 175.381 27.23C175.381 19.022 181.753 12.812 190.177 12.812C198.601 12.812 204.973 19.022 204.973 27.284ZM190.177 18.968C186.667 18.968 183.913 21.182 182.995 24.53H197.413C196.495 21.182 193.633 18.968 190.177 18.968Z" fill="url(#paint0_linear_169_3795)"/>
<path d="M239.326 2.76237C242.271 2.76237 244.666 4.91659 244.666 7.56478V16.3796H258.643C261.588 16.3796 263.984 18.5339 263.984 21.1821C263.984 23.8302 261.588 25.9845 258.643 25.9845H244.666V34.7993C244.666 37.4475 242.271 39.6017 239.326 39.6017C236.381 39.6017 233.985 37.4475 233.985 34.7993V25.9845H228.357C225.412 25.9845 223.016 23.8302 223.016 21.1821C223.016 18.5339 225.412 16.3796 228.357 16.3796H233.985V7.56478C233.985 4.91659 236.381 2.76237 239.326 2.76237ZM239.326 0.949219C235.262 0.949219 231.969 3.91103 231.969 7.56478V14.5665H228.357C224.294 14.5665 221 17.5283 221 21.1821C221 24.8358 224.294 27.7976 228.357 27.7976H231.969V34.7993C231.969 38.4531 235.262 41.4149 239.326 41.4149C243.389 41.4149 246.683 38.4531 246.683 34.7993V27.7976H258.643C262.706 27.7976 266 24.8358 266 21.1821C266 17.5283 262.706 14.5665 258.643 14.5665H246.683V7.56478C246.683 3.91103 243.389 0.949219 239.326 0.949219Z" fill="url(#paint1_linear_169_3795)"/>
<defs>
<linearGradient id="paint0_linear_169_3795" x1="116.65" y1="22.5" x2="207" y2="22.5" gradientUnits="userSpaceOnUse">
<stop stop-color="#61C3A8"/>
<stop offset="1" stop-color="#0454A0"/>
</linearGradient>
<linearGradient id="paint1_linear_169_3795" x1="243.5" y1="0.949219" x2="243.5" y2="41.4149" gradientUnits="userSpaceOnUse">
<stop stop-color="#61C3A8"/>
<stop offset="1" stop-color="#0454A0"/>
</linearGradient>
</defs>
</svg>
