<svg width="57" height="56" viewBox="0 0 57 56" fill="none" xmlns="http://www.w3.org/2000/svg">
    <rect width="57" height="56" rx="10" fill="#C81212"/>
    <path d="M41.5577 31.164C40.6973 30.2328 38.9391 29.6944 36.4476 29.6944C35.1142 29.6944 33.573 29.829 31.8947 30.1461C30.869 29.1185 29.9356 28 29.1055 26.804C28.4628 25.8967 27.9001 24.936 27.3845 23.9901C28.3675 20.8692 28.845 18.3236 28.845 16.4898C28.845 14.4347 28.1125 12.293 26.0131 12.293C25.365 12.293 24.7224 12.6913 24.3775 13.2776C23.4317 15.0063 23.8574 18.8003 25.4884 22.5454C24.8664 24.4558 24.1804 26.3442 23.4317 28.2072C22.7233 29.9165 21.9457 31.5953 21.1008 33.2394C16.3782 35.1894 13.3194 37.4602 13.0362 39.247C12.9082 39.9191 13.126 40.5341 13.589 41.0282C13.7496 41.1628 14.355 41.6957 15.3807 41.6957C18.5148 41.6957 21.8151 36.4377 23.4979 33.2633C24.7841 32.8217 26.0748 32.4179 27.36 32.015C28.7182 31.6338 30.0941 31.3211 31.4826 31.0783C34.792 34.1567 37.7083 34.6417 39.1742 34.6417C40.9804 34.6417 41.6231 33.8829 41.8409 33.2633C42.1813 32.4612 41.9262 31.578 41.5387 31.1216L41.5623 31.1695L41.5577 31.164ZM39.884 32.4603C39.756 33.1278 39.1088 33.574 38.2057 33.574C37.9507 33.574 37.7328 33.5261 37.4732 33.4874C35.8276 33.0836 34.2873 32.2344 32.7507 30.8939C33.9425 30.6901 35.1491 30.5874 36.3577 30.5868C37.2509 30.5868 38.0269 30.6302 38.5461 30.7648C39.1415 30.8948 40.0873 31.3023 39.8749 32.4649H39.8985L39.884 32.4603ZM30.7792 30.3619C29.5832 30.6099 28.3945 30.8934 27.2148 31.2119C26.1886 31.4951 25.1718 31.8121 24.166 32.1625C24.6879 31.1118 25.175 30.0435 25.6264 28.9596C26.1465 27.7066 26.5722 26.4149 27.0024 25.2136C27.4236 25.9677 27.8956 26.7265 28.3685 27.4033C29.1436 28.4737 29.9523 29.4925 30.7656 30.3803V30.3563L30.7792 30.3619ZM25.1481 13.7857C25.2237 13.6283 25.3404 13.4951 25.4854 13.4003C25.6303 13.3055 25.7981 13.2529 25.9704 13.2481C26.8735 13.2481 27.0433 14.3139 27.0433 15.1686C27.0433 16.6041 26.613 18.7846 25.8805 21.2721C24.5944 17.8055 24.51 14.9049 25.1526 13.7857H25.1481ZM20.4255 34.5587C18.2371 38.2992 16.1331 40.6189 14.8424 40.6189C14.5919 40.6189 14.3741 40.5276 14.2044 40.3976C13.9448 40.1284 13.8168 39.8168 13.9021 39.4609C14.1617 38.1212 16.6106 36.2487 20.4309 34.5578L20.4255 34.5587Z" fill="white"/>
</svg>
