<svg width="141" height="150" viewBox="0 0 141 150" fill="none" xmlns="http://www.w3.org/2000/svg">
<rect width="141" height="150" rx="8" fill="#EFF2F5"/>
<g clip-path="url(#clip0_5596_18162)">
<path d="M61.5854 74.0786C62.1843 73.8294 62.7683 73.5526 63.281 73.1449C63.3327 73.1046 63.3919 73.0719 63.4214 73.0014C63.3426 72.9889 63.281 73.0241 63.2193 73.0467C61.7752 73.5375 60.2866 73.8118 58.7808 74.0006C58.1055 74.0861 57.4278 74.144 56.7476 74.1843C56.1463 74.2221 55.5449 74.2472 54.9461 74.2573C54.1057 74.2699 53.2628 74.2623 52.4224 74.2648C52.3214 74.2648 52.2277 74.2447 52.1366 74.2044C52.0503 74.1667 51.9961 74.1088 52.0084 74.0031C52.0183 73.91 52.0084 73.8143 52.0232 73.7212C52.0823 73.2909 52.0922 72.8605 52.0848 72.4276C52.0774 71.9067 52.0281 71.3882 52.0528 70.8673C52.0651 70.6131 52.0774 70.3564 52.1341 70.1198C52.1784 70.0871 52.2179 70.0946 52.2524 70.0896C52.521 70.0644 52.7896 70.0443 53.0583 70.0116C53.7582 69.921 54.4482 69.7775 55.1309 69.5913C55.784 69.4126 56.4223 69.1936 57.0162 68.8539C57.5141 68.5695 57.9675 68.2322 58.3199 67.7692C58.7833 67.1651 58.7882 66.4982 58.3397 65.8816C58.1918 65.6803 58.0168 65.5041 57.8221 65.3481C57.2504 64.8875 56.5973 64.588 55.9195 64.3338C54.7292 63.8858 53.4945 63.677 52.2351 63.5788C52.176 63.5738 52.1119 63.5889 52.0552 63.531C52.0552 63.4882 52.0478 63.4379 52.0478 63.39C52.033 61.6913 52.0503 59.9925 52.0183 58.2937C51.9985 57.2719 52.0133 56.2501 52.0109 55.2283C52.0109 55.1478 52.0158 55.0647 51.9838 54.9867C51.9493 54.9011 51.9123 54.8181 51.9345 54.7023C51.831 54.735 51.7595 54.7023 51.6929 54.6419C51.5993 54.5588 51.4785 54.5236 51.3627 54.4783C51.1606 54.4028 50.9585 54.3273 50.7589 54.2518C49.7287 53.8642 48.6986 53.4766 47.666 53.0916C47.597 53.0664 47.528 53.0412 47.4565 53.0211C47.247 52.9632 47.1681 53.0211 47.1484 53.235C47.141 53.3231 47.1435 53.4112 47.1435 53.4993C47.1435 58.0772 47.141 62.6552 47.1435 67.2331C47.1435 69.3346 47.1484 71.4335 47.1509 73.535C47.1509 73.6281 47.1509 73.7212 47.1164 73.8118C47.0597 73.9628 47.0351 73.983 46.8724 73.9779C46.5471 73.9628 46.2218 73.9452 45.8989 73.9301C45.8373 73.9276 45.7782 73.9226 45.7314 73.8697C45.6771 73.8068 45.6007 73.7892 45.5293 73.8244C45.4603 73.8596 45.4011 73.8445 45.3346 73.8244C45.2705 73.8043 45.204 73.7942 45.1374 73.7791C44.8589 73.7187 44.573 73.7539 44.2946 73.7112C44.053 73.6734 43.8091 73.6407 43.5749 73.5652C43.3999 73.5098 43.2915 73.3991 43.2693 73.2078C43.2644 73.1524 43.2471 73.0971 43.2447 73.0417C43.2324 72.6466 43.2496 72.2515 43.2053 71.8588C43.1929 71.7456 43.2472 71.6424 43.2472 71.5266C43.2595 69.546 43.2471 67.5628 43.2619 65.5821C43.2817 62.484 43.2693 59.3859 43.2693 56.2878C43.2693 56.2249 43.2693 56.162 43.2693 56.0991C43.2619 55.8927 43.1855 55.7568 42.9736 55.6788C41.8818 55.2761 40.7975 54.8608 39.7081 54.4531C39.6416 54.428 39.5751 54.3827 39.474 54.4129V72.5132C39.4173 72.556 39.3754 72.5686 39.3335 72.5786C38.7938 72.7045 38.2516 72.707 37.7094 72.5937C37.0366 72.4503 36.4033 72.1634 35.7206 72.0476C35.5949 72.0275 35.521 71.9318 35.4939 71.8035C35.4717 71.6978 35.4668 71.5921 35.4668 71.4864C35.4668 69.7045 35.4668 67.9252 35.4668 66.1433C35.4668 65.8313 35.4569 65.5167 35.4865 65.2046C35.5062 64.9932 35.4865 64.7818 35.3805 64.583C35.0675 64.588 34.7619 64.6258 34.4637 64.6937C33.2611 64.963 32.0608 65.2549 30.8828 65.6274C29.5126 66.0628 28.1941 66.619 26.9791 67.4093C26.5158 67.7113 26.0771 68.0384 25.7173 68.4688C25.387 68.8664 25.1381 69.3069 25.0543 69.8329C25.0445 69.8983 25.0395 69.9713 24.9902 70.0241V70.3639C25.0445 70.4293 25.0469 70.5149 25.0617 70.5929C25.0888 70.7414 25.1282 70.8849 25.1825 71.0258C25.3919 71.5694 25.7394 72.0124 26.1658 72.3899C26.9446 73.0744 27.8293 73.5853 28.7658 74.0106C29.8675 74.5115 31.0208 74.8613 32.1816 75.1784C33.8599 75.6339 35.558 75.9838 37.2831 76.2078C37.9165 76.2908 38.5498 76.3613 39.1857 76.4141C39.718 76.4569 40.2503 76.4997 40.7851 76.5022C40.8467 76.5022 40.9108 76.5022 40.9626 76.5425C41.1671 76.7061 41.3939 76.6985 41.6255 76.6255C41.6773 76.6079 41.734 76.5853 41.7882 76.6104C41.9878 76.701 42.1973 76.6784 42.4043 76.6809C43.4665 76.691 44.5287 76.6834 45.5909 76.7136C46.0517 76.7262 46.5126 76.7212 46.9735 76.7262C47.0203 76.7262 47.072 76.7136 47.1361 76.769V97.0085C47.2347 96.9985 47.2963 96.9532 47.3604 96.9179C48.1934 96.475 49.0239 96.027 49.8569 95.5841C50.4065 95.2921 50.9585 95.0002 51.513 94.7208C51.8975 94.527 52.0823 94.225 52.0799 93.7921C52.0799 93.5908 52.0799 93.392 52.0799 93.1907C52.0799 90.3493 52.0749 87.5079 52.0749 84.669C52.0749 82.1925 52.0749 79.7136 52.0749 77.2371C52.0749 77.1113 52.0675 76.9879 52.0528 76.8621C52.033 76.691 52.0232 76.5148 52.1144 76.3537C52.2622 76.3336 52.4027 76.3613 52.5432 76.3361C53.2751 76.2128 54.0071 76.097 54.739 75.9737C55.6534 75.8202 56.5603 75.6339 57.4623 75.42C58.8695 75.0878 60.2398 74.6398 61.578 74.0861L61.5854 74.0786Z" fill="#0454A0"/>
<path d="M76.8475 91.3172C77.3799 91.3172 77.8654 90.9523 78.0601 90.4087C78.1315 90.2124 78.166 90.0085 78.1636 89.8022C78.1586 89.3567 78.1636 88.9137 78.1463 88.4683C78.1291 88.0354 78.1389 87.6025 78.1389 87.1697C78.1389 84.7184 78.1389 82.2671 78.1414 79.8133C78.1414 79.7126 78.1414 79.6119 78.1365 79.5112C78.1315 79.2822 78.0773 79.0633 77.9812 78.8594C77.7668 78.4014 77.4094 78.1396 76.9116 78.122C76.468 78.1069 76.0959 78.278 75.8445 78.6681C75.6818 78.9198 75.603 79.2017 75.5906 79.5012C75.5832 79.6824 75.5906 79.8661 75.5832 80.0473C75.5561 80.7746 75.5512 81.4995 75.5832 82.2268C75.5906 82.4206 75.5956 82.6169 75.5882 82.8107C75.5759 83.1404 75.4033 83.314 75.083 83.3367C75.0164 83.3417 74.9474 83.3392 74.8809 83.3367C74.1637 83.3191 73.4441 83.304 72.7269 83.304C72.1132 83.304 71.4996 83.3367 70.8859 83.3367C70.78 83.3367 70.6789 83.3291 70.5754 83.3014C70.398 83.2536 70.292 83.1379 70.2501 82.9566C70.2205 82.8283 70.2107 82.6974 70.2181 82.564C70.2476 81.9248 70.255 81.2855 70.255 80.6463C70.255 80.1455 70.2353 79.6421 70.1392 79.1488C69.9716 78.2705 69.2273 78.0138 68.5866 78.1698C68.1208 78.2831 67.8669 78.6254 67.7462 79.0784C67.6624 79.3879 67.6328 79.705 67.6328 80.0272C67.6328 81.6077 67.6328 83.1882 67.6328 84.7687C67.6328 86.3291 67.6328 87.892 67.6328 89.4523C67.6328 89.6663 67.6402 89.8777 67.6747 90.0891C67.7018 90.2552 67.7437 90.4188 67.8078 90.5773C68.0148 91.0756 68.3993 91.3197 68.9587 91.3172C69.5699 91.3122 70.0505 90.8894 70.1466 90.2728C70.2156 89.8374 70.2328 89.3995 70.2378 88.9616C70.2501 87.9272 70.2427 86.8928 70.2452 85.8584C70.2452 85.8207 70.2476 85.7829 70.2452 85.7452C70.2353 85.6546 70.2821 85.6118 70.361 85.5791C70.467 85.5363 70.5705 85.5187 70.6838 85.5187C71.9678 85.5187 73.2494 85.5136 74.5334 85.5111C74.7552 85.5111 74.9745 85.5086 75.1963 85.5111C75.4477 85.5162 75.534 85.5942 75.5759 85.8509C75.5857 85.9188 75.5906 85.9868 75.5906 86.0573C75.5906 86.5027 75.5857 86.9457 75.5759 87.3911C75.5561 88.2242 75.5808 89.0572 75.5931 89.8928C75.5956 90.0765 75.6227 90.2552 75.6744 90.4288C75.8297 90.9498 76.3177 91.3172 76.85 91.3147L76.8475 91.3172Z" fill="#0454A0"/>
<path d="M65.743 89.919C65.6346 89.466 65.3832 89.1413 64.9273 89.018C64.7055 88.9601 64.4788 88.9576 64.252 88.9576C63.1948 88.9576 62.14 88.9551 61.0827 88.9576C60.4025 88.9576 59.7198 88.9324 59.0396 88.9727C58.8351 88.9853 58.734 88.8922 58.6995 88.6833C58.6897 88.6229 58.6872 88.5574 58.6872 88.497C58.6921 88.0641 58.7094 87.6313 58.702 87.2009C58.6921 86.7429 58.6872 86.2873 58.6872 85.8293C58.6872 85.56 58.7045 85.5399 58.9608 85.477C59.0446 85.4568 59.1308 85.4442 59.2171 85.4543C59.4068 85.4719 59.5966 85.4543 59.7864 85.4543C60.2349 85.4619 60.681 85.4568 61.1295 85.4669C62.0857 85.4895 63.0444 85.4669 64.0006 85.4467C64.2323 85.4417 64.4492 85.3687 64.634 85.2253C64.9396 84.9887 65.0727 84.6691 64.9988 84.284C64.9174 83.8713 64.6907 83.5793 64.2668 83.4862C64.1288 83.456 63.9883 83.4485 63.8454 83.4485C62.2114 83.4485 60.5799 83.4485 58.946 83.4485C58.8745 83.4485 58.7981 83.4661 58.7193 83.4258C58.6921 83.3201 58.7069 83.2069 58.7069 83.0961C58.7069 82.5877 58.7143 82.0794 58.7119 81.5735C58.7119 81.3596 58.6847 81.1482 58.6847 80.9368C58.6847 80.602 58.8277 80.451 59.1505 80.4385C59.3526 80.4309 59.5547 80.4385 59.7593 80.4385C61.2503 80.4385 62.7438 80.4385 64.2348 80.4359C64.5182 80.4359 64.7967 80.3831 65.0505 80.2371C65.2748 80.1088 65.4276 79.9175 65.4892 79.6583C65.5212 79.5224 65.5163 79.3839 65.504 79.2455C65.4793 78.9209 65.329 78.6767 65.0431 78.5257C64.8312 78.415 64.6044 78.3672 64.3679 78.3672C62.0783 78.3672 59.7864 78.3672 57.4969 78.3672C57.317 78.3672 57.142 78.3999 56.9719 78.4528C56.6417 78.5559 56.378 78.7522 56.2252 79.0794C56.1217 79.3034 56.0724 79.5425 56.0699 79.7891C56.0551 80.8915 56.0601 81.9963 56.0453 83.0986C56.0305 84.4451 56.033 85.7941 56.0576 87.1405C56.0699 87.8301 56.0625 88.5197 56.0675 89.2093C56.0675 89.4584 56.0576 89.7101 56.102 89.9592C56.1907 90.4878 56.4667 90.8552 56.9769 91.0163C57.2258 91.0943 57.4796 91.1245 57.7384 91.1245C59.8825 91.1245 62.0241 91.1245 64.1682 91.1245C64.3654 91.1245 64.5601 91.1195 64.7548 91.0943C65.2501 91.0289 65.642 90.6614 65.743 90.1631C65.7603 90.0826 65.7652 89.9995 65.7455 89.9215L65.743 89.919Z" fill="#0454A0"/>
<path d="M91.7213 88.8C92.3719 89.847 93.2591 90.592 94.415 90.9946C95.1272 91.2413 95.8665 91.2966 96.4728 91.3117C96.9337 91.3142 97.259 91.2891 97.5818 91.2463C98.5824 91.1205 99.477 90.7455 100.246 90.071C101.049 89.3663 101.619 88.5207 101.739 87.4158C101.769 87.1491 101.786 86.8773 101.7 86.6155C101.523 86.0769 100.887 85.7623 100.312 85.9209C100.009 86.0039 99.8245 86.2154 99.6988 86.4972C99.5312 86.8722 99.3908 87.2623 99.1985 87.6272C98.8708 88.2514 98.4 88.7195 97.7445 88.9737C97.1752 89.1952 96.5837 89.2203 95.9848 89.1398C95.0582 89.0114 94.3731 88.5156 93.8999 87.6977C93.513 87.0333 93.3725 86.3009 93.3207 85.5434C93.2912 85.1256 93.2788 84.7078 93.3084 84.285C93.3404 83.8144 93.3947 83.3513 93.5056 82.8933C93.7298 81.957 94.2129 81.202 95.0335 80.7037C95.8789 80.1903 96.7735 80.0846 97.7026 80.442C98.3458 80.6886 98.8091 81.1467 99.1566 81.7431C99.307 82.0023 99.4598 82.2591 99.6126 82.5158C99.7555 82.7574 99.9428 82.9486 100.202 83.0644C100.608 83.2481 101.133 83.16 101.409 82.8379C101.727 82.4705 101.838 82.0476 101.705 81.5644C101.498 80.8069 101.116 80.1626 100.549 79.6316C99.5436 78.6878 98.331 78.2499 96.9903 78.1467C96.5936 78.1165 96.1943 78.1241 95.7951 78.1744C95.1863 78.2499 94.5998 78.3984 94.0453 78.6601C92.6775 79.3044 91.7582 80.3816 91.1865 81.7834C90.8168 82.6869 90.6985 83.6433 90.6837 84.6122C90.6763 85.1004 90.7059 85.5887 90.7749 86.0719C90.9129 87.0459 91.2087 87.9594 91.7262 88.795L91.7213 88.8Z" fill="#0454A0"/>
<path d="M43.2766 79.4056C43.2766 79.1238 43.2002 79.0256 42.9315 78.9627C42.8847 78.9526 42.8354 78.9425 42.7886 78.9325C41.9039 78.7613 41.0191 78.5877 40.1343 78.4166C39.9273 78.3763 39.7179 78.341 39.501 78.3008V96.313C39.5601 96.2879 39.6045 96.2728 39.6488 96.2526C40.1565 96.016 40.6667 95.782 41.1744 95.5429C41.687 95.3013 42.207 95.0748 42.7295 94.8558C43.0548 94.7199 43.2396 94.4758 43.2766 94.1184C43.2864 94.0303 43.284 93.9423 43.284 93.8542C43.284 92.6386 43.279 91.4205 43.279 90.2049C43.279 86.606 43.279 83.0046 43.2815 79.4056H43.2766Z" fill="#0454A0"/>
<path d="M111.487 86.7457C111.874 85.6711 112.258 84.5939 112.648 83.5167C113.064 82.3641 113.49 81.2165 113.87 80.0512C113.964 79.7668 114.008 79.4824 113.998 79.1855C113.988 78.9187 113.89 78.7022 113.712 78.5135C113.515 78.3071 113.266 78.1964 112.997 78.1561C112.512 78.0831 112.132 78.1586 111.8 78.7173C111.711 78.8683 111.647 79.0319 111.593 79.198C110.957 81.1409 110.324 83.0839 109.685 85.0243C109.466 85.6887 109.237 86.3506 109.054 87.0276C108.995 87.2465 108.901 87.4504 108.786 87.6442C108.719 87.7549 108.65 87.8631 108.554 87.9537C108.492 87.8959 108.487 87.8229 108.468 87.76C108.234 87.0603 107.999 86.3606 107.77 85.661C107.164 83.8213 106.553 81.9815 105.919 80.1494C105.764 79.7014 105.611 79.2509 105.441 78.8079C105.306 78.4581 105.054 78.2392 104.68 78.1737C104.539 78.1486 104.399 78.1385 104.258 78.1435C103.738 78.1561 103.223 78.6142 103.122 79.1326C103.061 79.4472 103.122 79.7442 103.223 80.0361C103.351 80.4086 103.485 80.7785 103.618 81.1485C104.599 83.8766 105.579 86.6048 106.563 89.3329C106.688 89.6802 106.807 90.03 106.982 90.3547C107.097 90.5711 107.238 90.7649 107.425 90.9235C107.691 91.1475 108.004 91.2507 108.335 91.2985C108.867 91.3765 109.345 91.2507 109.742 90.8606C109.981 90.6265 110.153 90.3472 110.274 90.0351C110.696 88.9453 111.087 87.8455 111.484 86.7457H111.487Z" fill="#0454A0"/>
<path d="M90.1014 79.748C90.2714 79.0433 89.9215 78.4921 89.2191 78.3814C89.0688 78.3587 88.9135 78.3638 88.7607 78.3638C86.2494 78.3638 83.7381 78.3638 81.2268 78.3638C81.0247 78.3638 80.8201 78.3612 80.618 78.3713C80.0192 78.404 79.6076 78.7941 79.5632 79.3881C79.5312 79.8058 79.7086 80.1934 80.1005 80.3973C80.2977 80.5005 80.5096 80.5357 80.724 80.5382C81.4116 80.5483 82.0992 80.581 82.7843 80.5231C82.9076 80.513 83.0283 80.5231 83.1515 80.5458C83.3536 80.5835 83.4621 80.7094 83.5163 80.8981C83.5508 81.0189 83.5582 81.1447 83.5557 81.2706C83.5459 81.8419 83.5508 82.4107 83.536 82.982C83.5187 83.6212 83.5286 84.2605 83.5286 84.8997C83.5286 86.3594 83.5286 87.8216 83.5286 89.2813C83.5286 89.6463 83.5779 90.0036 83.6617 90.3585C83.7849 90.8845 84.2803 91.3501 84.9063 91.3224C85.5101 91.2947 85.9808 90.8795 86.067 90.2704C86.1212 89.8854 86.141 89.4978 86.141 89.1102C86.141 87.8241 86.141 86.5406 86.141 85.2546H86.1434V82.3201C86.1434 81.8318 86.1434 81.3411 86.1434 80.8528C86.1434 80.6741 86.1582 80.6565 86.3233 80.5961C86.4539 80.5483 86.587 80.5483 86.7226 80.5458C87.5383 80.5357 88.3541 80.5634 89.1698 80.5281C89.5715 80.5105 89.9683 80.3016 90.1014 79.748Z" fill="#0454A0"/>
<path d="M104.589 93.4727C104.505 93.5255 104.431 93.591 104.352 93.6514C104.308 93.6841 104.273 93.7294 104.197 93.7545C104.098 93.5406 103.943 93.4123 103.721 93.3695C103.598 93.3443 103.477 93.3494 103.354 93.3468C103.189 93.3418 103.189 93.3443 103.147 93.1732C103.13 93.1002 103.115 93.0272 103.088 92.9567C103.058 92.8812 102.997 92.8334 102.92 92.8284C102.851 92.8234 102.819 92.8913 102.789 92.9467C102.684 93.1279 102.671 93.3242 102.693 93.528C102.708 93.6715 102.735 93.8124 102.74 93.9559C102.748 94.1421 102.728 94.3258 102.597 94.4819C102.459 94.3837 102.435 94.2478 102.43 94.1094C102.425 94.0037 102.43 93.8955 102.417 93.7898C102.39 93.5457 102.25 93.3921 102.016 93.3343C101.863 93.299 101.712 93.3166 101.56 93.3393C101.261 93.3846 101.165 93.5834 101.185 93.825C101.2 94.0163 101.185 94.1975 101.151 94.3837C101.099 94.6782 101.303 94.8997 101.599 94.882C101.648 94.8795 101.695 94.8669 101.745 94.8544C101.996 94.794 102.25 94.7612 102.511 94.7663C102.75 94.7688 102.989 94.7914 103.223 94.8342C103.561 94.8946 103.857 94.8116 104.096 94.5498C104.133 94.5096 104.157 94.4567 104.221 94.4416C104.352 94.5448 104.463 94.6706 104.603 94.7612C105.057 95.0456 105.641 94.8191 105.791 94.2982C105.831 94.1572 105.828 94.0138 105.774 93.8728C105.569 93.3443 105.057 93.1681 104.589 93.4702V93.4727Z" fill="#0454A0"/>
<path d="M81.1112 93.806C81.1112 93.7758 81.0989 93.7456 81.0915 93.7154C81.02 93.3631 80.776 93.2473 80.4409 93.3304C80.4063 93.3404 80.3718 93.3555 80.3373 93.3732C80.0515 93.5242 79.7483 93.5342 79.4403 93.4789C79.2111 93.4386 78.9819 93.3933 78.7502 93.3631C78.4914 93.3304 78.2351 93.3354 78.0035 93.4914C77.9049 93.5594 77.794 93.5594 77.6856 93.5216C77.5993 93.4914 77.513 93.4562 77.4268 93.426C77.2764 93.3732 77.1237 93.3228 76.9635 93.3153C76.7244 93.3052 76.5938 93.3908 76.5125 93.6173C76.404 93.9168 76.3818 94.2288 76.409 94.5434C76.4237 94.7297 76.5297 94.8278 76.7121 94.8706C76.8452 94.9033 76.9684 94.8605 77.0941 94.8379C77.4588 94.7674 77.8211 94.7221 78.1883 94.8152C78.2844 94.8379 78.3411 94.8027 78.3855 94.7221C78.4372 94.6265 78.4619 94.5233 78.4643 94.4176C78.4643 94.3295 78.4619 94.2414 78.4693 94.1533C78.4914 93.9344 78.6097 93.8287 78.8241 93.8287C79.0139 93.8287 79.115 93.9268 79.1347 94.1483C79.1445 94.249 79.1396 94.3496 79.1421 94.4478C79.1421 94.5485 79.1569 94.6491 79.2111 94.7347C79.2973 94.8706 79.4058 94.8756 79.5117 94.7574C79.566 94.6944 79.5906 94.6189 79.6128 94.5384C79.635 94.4604 79.6448 94.3748 79.7138 94.2968C79.7483 94.3698 79.773 94.4277 79.7976 94.483C79.9036 94.707 80.0712 94.8303 80.3226 94.8203C80.4335 94.8152 80.5419 94.8102 80.6528 94.7926C80.8228 94.7674 80.9929 94.7372 81.1925 94.7548C81.1703 94.5837 81.1432 94.4302 81.1309 94.2767C81.1186 94.1206 81.1186 93.9646 81.1112 93.806Z" fill="#0454A0"/>
<path d="M74.6791 93.3301C74.5584 93.3628 74.4524 93.4232 74.3464 93.4886C74.2774 93.5314 74.2109 93.5742 74.1468 93.622C74.0655 93.6824 73.9965 93.6673 73.9398 93.5918C73.9004 93.5364 73.8634 93.4786 73.8338 93.4156C73.7895 93.325 73.7624 93.2294 73.7131 93.1413C73.6416 93.0079 73.5529 92.8897 73.373 92.8947C73.2152 93.1237 73.2374 93.4534 72.9589 93.6245C72.7963 93.5239 72.641 93.4358 72.4685 93.3829C71.9855 93.2344 71.6035 93.471 71.5197 93.9769C71.4778 94.2286 71.5591 94.4525 71.7242 94.6337C71.9214 94.8502 72.1678 94.9408 72.4586 94.8703C72.747 94.7998 72.9072 94.6035 72.9688 94.3166C72.9885 94.226 72.9959 94.1304 73.0132 94.0398C73.0353 93.9316 73.0304 93.8183 73.0797 93.7151C73.2596 93.7906 73.3286 93.914 73.2941 94.1178C73.2719 94.2562 73.2596 94.3921 73.2867 94.528C73.3533 94.8527 73.5381 94.9735 73.8363 94.8502C74.1099 94.7369 74.3637 94.742 74.6373 94.8452C75.0439 95.0012 75.3322 94.8401 75.4555 94.4173C75.4727 94.3569 75.4875 94.2965 75.4974 94.2336C75.5368 94.0071 75.4974 93.7982 75.3766 93.6044C75.2164 93.3477 74.965 93.2495 74.6767 93.3301H74.6791Z" fill="#0454A0"/>
<path d="M113.618 93.3951C113.239 93.2542 112.955 93.2743 112.721 93.614C112.679 93.677 112.637 93.7374 112.595 93.7978C112.568 93.8355 112.551 93.8884 112.489 93.8959C112.361 93.7676 112.359 93.6065 112.383 93.4429C112.398 93.3422 112.411 93.2441 112.406 93.1434C112.398 93.0251 112.349 92.927 112.248 92.8615C112.132 92.7886 112.058 92.8112 111.999 92.9396C111.969 93.005 111.972 93.0729 111.965 93.1409C111.95 93.2894 111.91 93.3322 111.772 93.3397C111.186 93.3674 110.599 93.463 110.01 93.4253C109.981 93.4253 109.949 93.4203 109.914 93.4505C109.951 93.7097 109.929 93.9765 109.924 94.2432C109.919 94.432 109.936 94.6333 110.104 94.7843C110.239 94.6937 110.311 94.5704 110.308 94.4093C110.308 94.2533 110.313 94.0947 110.35 93.9437C110.39 93.7726 110.52 93.6971 110.685 93.7399C110.816 93.7726 110.875 93.8406 110.89 93.9941C110.9 94.0872 110.89 94.1828 110.9 94.2759C110.925 94.5654 111.102 94.8095 111.331 94.8422C111.531 94.8699 111.735 94.8825 111.935 94.88C112.172 94.8774 112.339 94.7541 112.42 94.5176C112.433 94.4798 112.425 94.4295 112.489 94.4018C112.549 94.4571 112.608 94.5176 112.672 94.578C112.812 94.7088 112.965 94.8221 113.15 94.8875C113.372 94.968 113.569 94.9177 113.724 94.7491C114.077 94.3691 114.067 93.9035 113.776 93.5209C113.734 93.4656 113.682 93.4177 113.618 93.3951Z" fill="#0454A0"/>
<path d="M94.0897 93.3887C94.0453 93.3686 93.996 93.3585 93.9492 93.3485C93.7816 93.3157 93.6214 93.3535 93.4588 93.3887C93.3528 93.4114 93.2665 93.4668 93.2024 93.5574C93.1482 93.6329 93.0915 93.7084 93.0151 93.7637C92.9412 93.8191 92.8722 93.8266 92.8032 93.7511C92.5124 93.429 92.1304 93.351 91.7262 93.3711C91.4576 93.3837 91.1865 93.3988 90.9179 93.3988C90.876 93.3988 90.8316 93.3862 90.7872 93.429C90.7651 93.887 90.6591 94.3602 90.8784 94.8258C91.0583 94.7427 91.1298 94.6043 91.1421 94.4332C91.152 94.3275 91.1421 94.2193 91.1495 94.1136C91.1594 93.9525 91.1963 93.804 91.3615 93.7285C91.5291 93.7839 91.5956 93.9047 91.5981 94.0708C91.5981 94.184 91.5931 94.2973 91.5907 94.408C91.5907 94.4709 91.5907 94.5338 91.6153 94.5917C91.6449 94.6622 91.6769 94.7427 91.7558 94.7528C91.8445 94.7629 91.9209 94.71 91.9702 94.632C92.0072 94.5716 92.0244 94.5062 92.0244 94.4357C92.0244 94.3552 92.017 94.2721 92.0195 94.1916C92.0195 94.1287 92.0195 94.0632 92.0367 94.0053C92.0737 93.8795 92.1723 93.8468 92.2807 93.9198C92.3645 93.9751 92.4064 94.0531 92.404 94.1563C92.4015 94.262 92.4015 94.3703 92.3941 94.476C92.3842 94.632 92.4434 94.7427 92.5962 94.8057C92.6578 94.7553 92.6677 94.6899 92.6972 94.637C92.8007 94.4533 92.924 94.4256 93.0891 94.554C93.1556 94.6068 93.2148 94.6748 93.2788 94.7327C93.4563 94.8937 93.6559 94.9617 93.89 94.8837C94.1069 94.8107 94.2868 94.6798 94.415 94.4885C94.6466 94.1387 94.4717 93.5498 94.0921 93.3837L94.0897 93.3887Z" fill="#0454A0"/>
<path d="M109.364 93.4393C109.108 93.2758 108.704 93.2254 108.469 93.5073C108.435 93.5501 108.386 93.5803 108.341 93.613C108.302 93.6407 108.257 93.6432 108.206 93.6432C108.023 93.6407 107.949 93.5123 107.871 93.394C107.888 93.3336 107.927 93.3135 107.957 93.2833C107.989 93.2531 108.021 93.2254 108.05 93.1927C108.156 93.082 108.159 93.0367 108.06 92.9209C108.033 92.8882 108.009 92.8504 107.949 92.8353C107.873 93.0165 107.799 93.2028 107.718 93.384C107.634 93.5677 107.597 93.7791 107.442 93.9326C107.286 93.8747 107.213 93.7539 107.171 93.613C107.129 93.4771 107.099 93.3336 107.062 93.1952C107.03 93.0719 106.976 92.9612 106.877 92.8756C106.794 92.8026 106.742 92.7976 106.646 92.858C106.522 92.9335 106.493 93.009 106.542 93.1575C106.71 93.6608 106.912 94.1541 107.107 94.6474C107.116 94.67 107.126 94.6927 107.141 94.7128C107.267 94.9066 107.486 94.9066 107.607 94.7128C107.678 94.5945 107.72 94.4637 107.757 94.3303C107.799 94.1843 107.851 94.0459 107.922 93.9125C107.962 93.8395 108.009 93.7741 108.068 93.7212C108.144 93.6533 108.196 93.6684 108.233 93.7665C108.253 93.8219 108.253 93.8773 108.25 93.9326C108.248 94.0132 108.243 94.0962 108.248 94.1767C108.27 94.5417 108.469 94.7782 108.819 94.8663C108.903 94.8865 108.989 94.894 109.076 94.8915C109.31 94.8865 109.448 94.7782 109.485 94.5442C109.529 94.2774 109.544 94.0081 109.532 93.7388C109.527 93.6105 109.47 93.5098 109.364 93.4419V93.4393Z" fill="#0454A0"/>
<path d="M67.0739 93.3819C67.0591 93.1831 67.0049 92.9893 66.8891 92.793C66.8669 92.8257 66.8546 92.8408 66.8472 92.8584C66.7042 93.2057 66.4553 93.3844 66.0782 93.3894C65.8515 93.3919 65.6938 93.5606 65.647 93.8047C65.6001 94.0463 65.6346 94.2804 65.7209 94.5043C65.8367 94.8089 66.0413 94.9196 66.3617 94.8642C66.3986 94.8592 66.4356 94.8567 66.4701 94.8491C66.6673 94.8064 66.8693 94.8013 67.0764 94.7359C67.0517 94.2804 67.1059 93.8299 67.0739 93.3819Z" fill="#0454A0"/>
<path d="M70.8496 93.2041C70.8496 93.2544 70.8496 93.3047 70.8496 93.3551C70.8496 93.4683 70.8003 93.5388 70.6918 93.5791C70.4183 93.6772 70.2605 93.6093 70.1496 93.3349C70.1028 93.2192 70.0634 93.1009 70.0116 92.9876C69.9697 92.897 69.9131 92.8165 69.7997 92.7812C69.674 93.0052 69.6025 93.277 69.5902 93.5489C69.5705 93.9566 69.6247 94.3618 69.6395 94.767C69.6395 94.777 69.6518 94.7871 69.6592 94.7972C69.8293 94.8148 69.9032 94.7871 69.9919 94.6638C70.0461 94.5883 70.0806 94.5002 70.1151 94.4121C70.1595 94.3014 70.1891 94.1856 70.263 94.0899C70.3443 93.9817 70.4478 93.9515 70.5908 93.9943C70.7633 94.0447 70.8249 94.1051 70.8372 94.2561C70.8446 94.3492 70.8372 94.4448 70.8471 94.5379C70.8693 94.7468 71.0147 94.855 71.2291 94.8349C71.3178 94.2863 71.3055 93.0933 71.2094 92.8064C70.9407 92.8442 70.8545 92.9373 70.8496 93.2015V93.2041Z" fill="#0454A0"/>
<path d="M96.5835 92.8125C96.4726 92.8326 96.4135 92.9031 96.3716 92.9887C96.3445 93.044 96.3223 93.1044 96.3026 93.1623C96.2607 93.2856 96.1966 93.3687 96.0488 93.3561C95.9452 93.346 95.8417 93.3813 95.7431 93.4115C95.3858 93.5222 95.2305 93.7361 95.2355 94.1162C95.2404 94.4912 95.3957 94.6749 95.7604 94.7453C96.034 94.7982 96.31 94.7781 96.586 94.7655C96.6082 94.7655 96.6304 94.7504 96.6649 94.7378C96.6698 94.5767 96.6649 94.4131 96.6846 94.2546C96.7191 93.9425 96.7216 93.6279 96.7043 93.3158C96.6944 93.1447 96.6797 92.9685 96.5835 92.815V92.8125Z" fill="#0454A0"/>
<path d="M100.536 94.167C100.455 94.2349 100.379 94.3079 100.295 94.3708C100.152 94.4765 100.021 94.474 99.8932 94.3557C99.5506 94.0411 99.5457 93.6586 99.8562 93.3188C99.977 93.1879 100.103 93.1728 100.255 93.2609C100.352 93.3163 100.438 93.3868 100.531 93.4472C100.618 93.5051 100.706 93.5655 100.817 93.5579C100.899 93.193 100.702 92.8633 100.352 92.7953C100.194 92.7651 100.034 92.7626 99.8784 92.8104C99.4471 92.9438 99.2253 93.2534 99.1661 93.6963C99.1119 94.1116 99.2623 94.4438 99.5802 94.7005C99.8734 94.9371 100.184 94.927 100.517 94.7836C100.854 94.6401 100.97 94.3507 100.844 94.0336C100.684 94.0562 100.65 94.0713 100.539 94.1644L100.536 94.167Z" fill="#0454A0"/>
<path d="M57.1417 93.1971C57.2452 93.187 57.3487 93.187 57.4547 93.1845C57.6494 93.1795 57.8318 93.1417 57.9895 92.9631C57.5582 92.7391 57.1368 92.6862 56.6956 92.8473C56.5675 92.8951 56.4985 92.9731 56.4689 93.1115C56.3802 93.5268 56.3876 93.9446 56.4147 94.3624C56.4171 94.4177 56.4319 94.4731 56.4442 94.5285C56.4615 94.6065 56.5009 94.6644 56.5773 94.6946C57.0209 94.8833 57.4572 94.833 57.9229 94.6719C57.8022 94.531 57.6814 94.4706 57.5237 94.4706C57.3709 94.4706 57.2181 94.4907 57.0678 94.4454C56.9988 94.4228 56.947 94.39 56.9174 94.3221C56.8558 94.1786 56.91 94.0478 57.0554 93.9874C57.191 93.932 57.3339 93.9521 57.4744 93.9521C57.6346 93.9521 57.679 93.9119 57.7233 93.7382C57.5927 93.703 57.4596 93.6954 57.3241 93.6929C57.2625 93.6929 57.2008 93.6929 57.1417 93.6854C57.0111 93.6652 56.9273 93.557 56.9298 93.4186C56.9298 93.2852 57.0012 93.2072 57.1491 93.1921L57.1417 93.1971Z" fill="#0454A0"/>
<path d="M62.0751 93.3776C61.5945 93.1838 61.2125 93.4078 61.146 93.9288C61.1312 94.0395 61.1238 94.1528 61.1115 94.266C61.1065 94.3189 61.1139 94.3818 61.0449 94.3994C61.1854 94.5504 61.3333 94.6888 61.5033 94.7996C61.6561 94.9002 61.8262 94.9254 61.9987 94.8801C62.287 94.8046 62.5384 94.4749 62.5507 94.1729C62.5655 93.813 62.3782 93.4984 62.0775 93.3751L62.0751 93.3776Z" fill="#0454A0"/>
<path d="M83.3983 94.018C83.386 93.8997 83.3712 93.7814 83.3317 93.6681C83.2627 93.4693 83.1223 93.3661 82.9226 93.346C82.8733 93.341 82.8241 93.346 82.7748 93.346C82.4149 93.346 82.203 93.4743 82.1069 93.7587C82.0576 93.9022 82.0354 94.0507 82.0527 94.2017C82.0847 94.476 82.1833 94.7151 82.4544 94.8233C82.7255 94.9315 82.9966 94.9013 83.2553 94.7755C83.4131 94.7 83.4747 94.5792 83.4402 94.408C83.4131 94.2772 83.4131 94.1488 83.3983 94.018Z" fill="#0454A0"/>
<path d="M68.3993 93.4213C68.2785 93.366 68.1553 93.3433 68.0419 93.3483C67.6599 93.3433 67.4603 93.4691 67.3666 93.7686C67.3297 93.8869 67.3075 94.0128 67.3149 94.1386C67.3346 94.4456 67.4381 94.6998 67.7412 94.8257C67.9162 94.8986 68.1011 94.9112 68.2834 94.8835C68.5422 94.8408 68.6802 94.6772 68.6605 94.4154C68.6482 94.2518 68.6433 94.0933 68.6654 93.9322C68.6704 93.8945 68.6654 93.8567 68.6654 93.819C68.6506 93.6352 68.5669 93.4993 68.3993 93.4213Z" fill="#0454A0"/>
<path d="M64.2049 93.3097C64.1383 93.3097 64.0693 93.3072 64.0028 93.3097C63.7662 93.3273 63.5912 93.4431 63.5222 93.6797C63.4261 94.0119 63.4409 94.3491 63.5468 94.6763C63.6011 94.8424 63.7292 94.9053 63.8968 94.8701C63.9978 94.85 64.0989 94.8172 64.1975 94.7845C64.3576 94.7317 64.5178 94.7065 64.7027 94.7845C64.7594 94.4498 64.8086 94.1377 64.7594 93.8156C64.7101 93.4909 64.5252 93.3198 64.2024 93.3097H64.2049Z" fill="#0454A0"/>
<path d="M98.2737 94.0109C98.3033 93.5856 98.1184 93.3666 97.7167 93.349C97.6921 93.349 97.6674 93.349 97.6822 93.349C97.2632 93.3289 97.0661 93.5327 96.9921 93.7794C96.9527 93.9103 96.9305 94.0487 96.9429 94.1871C96.9675 94.474 97.0784 94.7081 97.3544 94.8238C97.5713 94.9144 97.7956 94.917 98.0174 94.8389C98.217 94.7685 98.323 94.5948 98.2835 94.3859C98.2589 94.2601 98.2663 94.1393 98.2761 94.0134L98.2737 94.0109Z" fill="#0454A0"/>
<path d="M59.3426 94.3018C59.3426 94.0627 59.3179 93.8564 59.2539 93.66C59.1849 93.4537 59.0395 93.3404 58.8324 93.3203C58.6994 93.3077 58.5638 93.3077 58.4307 93.3404C58.1621 93.4084 58.0709 93.5392 58.1202 93.8136C58.1621 94.0476 58.2262 94.2766 58.1991 94.5183C58.1818 94.6667 58.2681 94.7674 58.4036 94.8177C58.5318 94.8656 58.6649 94.8832 58.8004 94.8882C59.1257 94.9033 59.3796 94.712 59.3475 94.3245C59.3475 94.3068 59.3475 94.2867 59.3475 94.3018H59.3426Z" fill="#0454A0"/>
<path d="M88.6356 93.1097C88.5765 93.2884 88.4754 93.3639 88.2832 93.3589C88.017 93.3539 87.7484 93.3866 87.4625 93.4042C87.4896 93.7666 87.4354 94.1164 87.4699 94.4637C87.4872 94.6198 87.5439 94.7657 87.6671 94.8815C87.8371 94.7884 87.8889 94.6374 87.879 94.4562C87.8741 94.3555 87.8593 94.2574 87.8593 94.1567C87.8568 93.9856 87.9456 93.8723 88.0984 93.8144C88.1649 93.7867 88.2413 93.7742 88.3128 93.7666C88.4828 93.7515 88.5666 93.8245 88.5765 94.0007C88.5839 94.124 88.5937 94.2498 88.5888 94.3757C88.574 94.6651 88.6726 94.7909 88.9437 94.8387C89.0817 94.1642 88.9905 93.4998 88.8895 92.8203C88.7317 92.8656 88.6775 92.9864 88.6381 93.1097H88.6356Z" fill="#0454A0"/>
<path d="M90.3335 94.09C90.2645 94.0422 90.1832 94.0095 90.1561 93.9289C90.1807 93.8836 90.2103 93.8761 90.2374 93.861C90.2695 93.8434 90.304 93.8258 90.3311 93.8031C90.4198 93.7326 90.437 93.6647 90.3656 93.5791C90.2103 93.3904 90.0131 93.2872 89.7667 93.3123C89.5375 93.3375 89.4143 93.4986 89.3354 93.6999C89.2664 93.8811 89.3083 93.9994 89.4784 94.09C89.5917 94.1504 89.7149 94.1957 89.8308 94.2486C89.9146 94.2863 89.9959 94.3316 90.0378 94.4272C89.9663 94.5254 89.8727 94.533 89.7741 94.4927C89.7174 94.47 89.6657 94.4348 89.609 94.4096C89.5203 94.3694 89.434 94.3215 89.3132 94.3492C89.3132 94.5179 89.3625 94.6487 89.4833 94.7418C89.7051 94.9155 90.198 94.8727 90.3927 94.6663C90.5874 94.46 90.5652 94.246 90.336 94.09H90.3335Z" fill="#0454A0"/>
<path d="M60.4147 94.4489C60.3359 94.5446 60.2348 94.5295 60.1338 94.4489C60.0746 94.4036 60.0303 94.3432 59.9982 94.2728C59.9268 94.1092 59.9687 93.9204 60.1042 93.7946C60.22 93.6864 60.3063 93.6914 60.4985 93.8147C60.5256 93.8323 60.5503 93.85 60.5774 93.86C60.6858 93.9003 60.7893 93.9104 60.8756 93.8172C60.8608 93.5681 60.7055 93.3818 60.4295 93.3391C60.3507 93.3265 60.2718 93.3164 60.1929 93.3164C59.8849 93.3164 59.6803 93.48 59.6088 93.7845C59.5694 93.9557 59.5546 94.1293 59.5645 94.3055C59.5719 94.4363 59.6212 94.5471 59.7074 94.6427C60.0007 94.9623 60.4862 94.9724 60.7967 94.6729C60.8854 94.5874 60.9397 94.4741 61.0382 94.4011C61.021 94.3936 61.0062 94.3835 60.989 94.3759C60.7819 94.2702 60.5897 94.23 60.4123 94.4489H60.4147Z" fill="#0454A0"/>
<path d="M86.821 93.4796C86.7569 93.5501 86.7569 93.6381 86.7569 93.7262C86.7569 93.8521 86.7618 93.9754 86.7618 94.1012C86.7618 94.222 86.7126 94.3202 86.6164 94.3881C86.4538 94.5039 86.3404 94.4636 86.2936 94.2698C86.2788 94.2094 86.2813 94.1465 86.2813 94.0836C86.2813 93.9401 86.2862 93.7967 86.2813 93.6532C86.2714 93.4871 86.1925 93.4267 86.0028 93.4444C85.919 93.7615 85.8574 94.0861 85.8796 94.4183C85.8968 94.6901 86.0496 94.8386 86.3133 94.8537C86.4735 94.8613 86.6312 94.8336 86.7865 94.7958C87.0995 94.7203 87.1069 94.7203 87.1512 94.3932C87.1759 94.2019 87.2178 94.0106 87.1783 93.8168C87.1315 93.5979 87.0527 93.5148 86.8259 93.4796H86.821Z" fill="#0454A0"/>
<path d="M84.207 93.0865C84.2785 93.0991 84.345 93.1091 84.4091 93.1217C84.6605 93.1645 84.7763 93.2954 84.7714 93.5571C84.7665 93.839 84.7862 94.1208 84.7492 94.4027C84.7172 94.6443 84.8232 94.7802 85.0647 94.8507C85.2051 94.7047 85.2594 94.5135 85.2323 94.2643C85.215 94.1083 85.1904 93.9522 85.183 93.7962C85.1632 93.4464 85.3037 93.2073 85.6019 93.1041C85.6611 93.084 85.7202 93.0588 85.7892 93.0311C85.3259 92.7341 84.589 92.7719 84.207 93.0865Z" fill="#0454A0"/>
<path d="M75.7489 93.2786C75.6799 93.5882 75.6873 93.9028 75.7169 94.2148C75.7366 94.4313 75.7809 94.6452 75.8918 94.8616C76.2073 94.4111 76.2393 93.2409 75.9559 92.8281C75.8351 92.959 75.7859 93.1176 75.7489 93.2786Z" fill="#0454A0"/>
<path d="M62.8716 92.8906C62.7336 93.5727 62.7829 94.2396 62.8469 94.9468C62.9776 94.7656 63.0342 94.597 63.0737 94.4208C63.1747 93.9804 63.1846 93.5425 63.0268 93.1121C62.9973 93.0341 62.9726 92.9485 62.874 92.8906H62.8716Z" fill="#0454A0"/>
</g>
<defs>
<clipPath id="clip0_5596_18162">
<rect width="89" height="44" fill="white" transform="translate(25 53)"/>
</clipPath>
</defs>
</svg>
