<svg width="418" height="117" viewBox="0 0 418 117" fill="none" xmlns="http://www.w3.org/2000/svg">
    <g clip-path="url(#clip0_676_1247)">
        <path d="M0 55.7204C0 38.8559 13.0164 26.2041 30.4979 26.2041H65.8307V62.296L94.965 26.2041H118.52L86.4092 65.5191L101.409 85.9813C105.005 91.0679 109.59 93.6713 115.169 93.6713H118.89V111.78H113.061C100.29 111.78 90.8698 106.943 84.9208 97.3937L73.6378 81.2692L65.8262 90.8182V111.78H46.6113V44.3124H30.4934C23.6755 44.3124 18.591 49.2742 18.591 55.7249C18.591 62.1756 23.6755 67.1329 30.4934 67.1329V85.2413C13.0164 85.2413 0 72.5895 0 55.7204Z"
              fill="#164996"/>
        <path d="M143.626 49.9072C139.219 46.9159 136.545 41.5619 136.545 35.7397C136.545 27.2383 142.525 21.4117 151.496 21.4117C159.994 21.4117 165.818 26.7658 166.762 33.8495L216.337 39.5156V45.0257C207.683 56.991 203.116 67.3825 203.116 76.2005C203.116 85.0184 207.367 89.5833 215.392 89.5833H218.855V111.784H213.347C190.999 111.784 179.511 99.5024 179.511 79.0357C179.511 72.108 180.928 65.1803 184.23 58.0966L164.557 55.4218L154.013 111.784H131.349L143.626 49.9117V49.9072Z"
              fill="#164996"/>
        <path d="M224.358 71.6355C224.358 47.705 242.927 29.6011 267.636 29.6011C292.346 29.6011 310.914 47.5489 310.914 71.952C310.914 73.9982 310.758 77.1455 310.286 79.0357H248.911C251.429 88.1657 258.67 93.9923 268.269 93.9923C275.822 93.9923 282.119 90.6845 285.109 86.436H309.658C303.678 102.654 287.627 113.674 267.797 113.674C242.931 113.674 224.363 95.5704 224.363 71.6399L224.358 71.6355ZM253.787 0H281.486L297.065 23.3019H275.506L267.636 12.4378L259.767 23.3019H238.208L253.787 0ZM249.063 63.7627H286.361C283.843 54.9447 276.762 49.2786 267.632 49.2786C258.501 49.2786 251.581 54.9447 249.063 63.7627Z"
              fill="#164996"/>
        <path d="M363.47 29.0884C369.49 29.0884 374.388 33.9877 374.388 40.0105V60.0581H402.961C408.981 60.0581 413.878 64.9574 413.878 70.9801C413.878 77.0029 408.981 81.9022 402.961 81.9022H374.388V101.95C374.388 107.973 369.49 112.872 363.47 112.872C357.45 112.872 352.553 107.973 352.553 101.95V81.9022H341.047C335.027 81.9022 330.129 77.0029 330.129 70.9801C330.129 64.9574 335.027 60.0581 341.047 60.0581H352.553V40.0105C352.553 33.9877 357.45 29.0884 363.47 29.0884ZM363.47 24.9648C355.164 24.9648 348.431 31.7008 348.431 40.0105V55.9344H341.047C332.741 55.9344 326.007 62.6704 326.007 70.9801C326.007 79.2898 332.741 86.0259 341.047 86.0259H348.431V101.95C348.431 110.26 355.164 116.996 363.47 116.996C371.776 116.996 378.51 110.26 378.51 101.95V86.0259H402.961C411.267 86.0259 418 79.2898 418 70.9801C418 62.6704 411.267 55.9344 402.961 55.9344H378.51V40.0105C378.51 31.7008 371.776 24.9648 363.47 24.9648Z"
              fill="#164996"/>
    </g>
    <defs>
        <clipPath id="clip0_676_1247">
            <rect width="418" height="117" fill="white"/>
        </clipPath>
    </defs>
</svg>
