<svg width="418" height="98" viewBox="0 0 418 98" fill="none" xmlns="http://www.w3.org/2000/svg">
<g clip-path="url(#clip0_5215_24534)">
<path d="M434.98 21.9502C428.759 16.1808 419.15 16.7047 413.552 23.124C406.051 31.7317 402.066 35.8697 393.576 35.8697C385.085 35.8697 381.1 31.7317 373.599 23.124C365.096 13.3691 353.45 0 331.057 0C308.664 0 297.018 13.3624 288.514 23.124C281.014 31.7317 277.029 35.8697 268.545 35.8697C260.06 35.8697 256.076 31.7317 248.575 23.124C240.071 13.3624 228.425 0 206.039 0C183.652 0 172.006 13.3624 163.503 23.124C156.002 31.7317 152.017 35.8697 143.533 35.8697C135.049 35.8697 131.064 31.7317 123.563 23.124C115.053 13.3624 103.413 0 81.0206 0C58.6278 0 46.9879 13.3624 38.4845 23.124C30.9838 31.7317 26.9989 35.8697 18.5148 35.8697C10.0307 35.8697 6.04577 31.7317 -1.45493 23.124L-1.53205 23.0311C-7.12383 16.6119 -16.7391 16.0814 -22.9608 21.8574C-25.9816 24.6492 -27.762 28.4889 -27.9805 32.6667C-28.1926 36.8379 -26.8236 40.8433 -24.1241 43.9468L-24.0277 44.053C-15.5244 53.8079 -3.87803 67.1769 18.5084 67.1769C40.8948 67.1769 52.5411 53.8145 61.0445 44.053C68.5452 35.4453 72.5301 31.3072 81.0142 31.3072C89.4983 31.3072 93.4832 35.4453 100.984 44.053C109.487 53.8079 121.134 67.1769 143.52 67.1769C165.906 67.1769 177.553 53.8145 186.056 44.053C193.557 35.4453 197.542 31.3072 206.026 31.3072C214.51 31.3072 218.495 35.4453 225.996 44.053C234.499 53.8079 246.145 67.1769 268.532 67.1769C290.918 67.1769 302.564 53.8145 311.068 44.053C318.568 35.4453 322.553 31.3072 331.038 31.3072C339.522 31.3072 343.513 35.4453 351.014 44.053C359.517 53.8079 371.163 67.1769 393.556 67.1769C415.949 67.1769 427.595 53.8145 436.099 44.053C441.691 37.6337 441.183 27.713 434.961 21.9436L434.98 21.9502Z" fill="#F8FAFC"/>
<path d="M434.981 96.7666C428.759 90.9972 419.15 91.5211 413.552 97.9404C406.051 106.548 402.066 110.686 393.576 110.686C385.085 110.686 381.1 106.548 373.6 97.9404C365.096 88.1855 353.45 74.8164 331.057 74.8164C308.664 74.8164 297.018 88.1789 288.515 97.9404C281.014 106.548 277.029 110.686 268.545 110.686C260.061 110.686 256.076 106.548 248.575 97.9404C240.072 88.1789 228.425 74.8164 206.039 74.8164C183.653 74.8164 172.006 88.1789 163.503 97.9404C156.002 106.548 152.017 110.686 143.533 110.686C135.049 110.686 131.064 106.548 123.563 97.9404C115.06 88.1789 103.414 74.8164 81.0273 74.8164C58.6409 74.8164 46.9946 88.1789 38.4912 97.9404C30.9905 106.548 27.0056 110.686 18.5215 110.686C10.0374 110.686 6.05245 106.548 -1.44825 97.9404L-1.52538 97.8476C-7.11716 91.4283 -16.7325 90.8978 -22.9541 96.6738C-25.9685 99.4723 -27.7489 103.312 -27.961 107.483C-28.1731 111.654 -26.8041 115.66 -24.1046 118.763L-24.0082 118.869C-15.5048 128.624 -3.8585 141.993 18.5279 141.993C40.9143 141.993 52.5606 128.631 61.064 118.869C68.5647 110.262 72.5497 106.124 81.0337 106.124C89.5178 106.124 93.5028 110.262 101.003 118.869C109.507 128.624 121.153 141.993 143.54 141.993C165.926 141.993 177.572 128.631 186.076 118.869C193.576 110.262 197.561 106.124 206.045 106.124C214.53 106.124 218.514 110.262 226.015 118.869C234.518 128.624 246.165 141.993 268.551 141.993C290.938 141.993 302.584 128.631 311.087 118.869C318.588 110.262 322.573 106.124 331.057 106.124C339.541 106.124 343.533 110.262 351.033 118.869C359.537 128.624 371.183 141.993 393.576 141.993C415.969 141.993 427.615 128.631 436.118 118.869C441.71 112.45 441.202 102.529 434.981 96.76V96.7666Z" fill="#F8FAFC"/>
</g>
<defs>
<clipPath id="clip0_5215_24534">
<rect width="468" height="142" fill="white" transform="translate(-28)"/>
</clipPath>
</defs>
</svg>
