<svg width="418" height="100" viewBox="0 0 418 100" fill="none" xmlns="http://www.w3.org/2000/svg">
    <g clip-path="url(#clip0_5215_6490)">
        <path d="M-29.1471 102.82C-25.4007 111.633 -20.0397 119.547 -13.2155 126.334C-6.3913 133.121 1.55557 138.452 10.4106 142.182C19.5811 146.044 29.3191 148 39.341 148C49.3628 148 59.1009 146.044 68.2713 142.182C77.1264 138.459 85.0732 133.128 91.8974 126.334C98.7217 119.547 104.083 111.633 107.829 102.82C109.633 98.578 111.033 94.1651 112.011 89.6762L136.324 89.6762C137.302 94.1714 138.702 98.578 140.506 102.82C144.252 111.633 149.613 119.547 156.437 126.334C163.261 133.121 171.208 138.452 180.063 142.182C189.234 146.044 198.972 148 208.994 148C219.016 148 228.754 146.044 237.924 142.182C246.779 138.459 254.726 133.128 261.55 126.334C268.374 119.541 273.735 111.633 277.482 102.82C279.286 98.578 280.686 94.1651 281.663 89.6763L305.977 89.6763C306.954 94.1715 308.355 98.578 310.158 102.82C313.905 111.633 319.266 119.547 326.09 126.334C332.914 133.121 340.861 138.452 349.716 142.182C358.893 146.044 368.631 148 378.653 148C388.675 148 398.413 146.044 407.583 142.182C416.438 138.459 424.385 133.128 431.209 126.334C438.033 119.547 443.394 111.633 447.141 102.82C451.032 93.684 453 83.9845 453 74C453 64.0156 451.032 54.3161 447.147 45.18C443.401 36.3669 438.04 28.4528 431.216 21.6657C424.391 14.8786 416.444 9.5476 407.589 5.81848C398.419 1.9564 388.681 4.01534e-05 378.659 3.92773e-05C368.637 3.84011e-05 358.899 1.9564 349.729 5.81847C340.874 9.5476 332.927 14.8785 326.103 21.6657C319.278 28.4591 313.917 36.3669 310.171 45.18C308.367 49.422 306.967 53.8349 305.989 58.3238L281.676 58.3238C280.698 53.8286 279.298 49.422 277.494 45.18C273.748 36.3669 268.387 28.4528 261.563 21.6657C254.739 14.8785 246.792 9.54759 237.937 5.81846C228.766 1.95639 219.028 2.53219e-05 209.006 2.44458e-05C198.984 2.35696e-05 189.246 1.95638 180.076 5.81846C171.221 9.54758 163.274 14.8785 156.45 21.6657C149.626 28.4528 144.265 36.3669 140.518 45.18C138.714 49.422 137.314 53.8349 136.337 58.3237L112.023 58.3237C111.046 53.8285 109.645 49.422 107.842 45.18C104.095 36.3669 98.7342 28.4528 91.91 21.6656C85.0858 14.8785 77.139 9.54757 68.2839 5.81845C59.1135 1.95637 49.3755 1.04904e-05 39.3536 9.61425e-06C29.3317 8.73811e-06 19.5937 1.95637 10.4233 5.81844C1.56819 9.54124 -6.37868 14.8785 -13.2029 21.6656C-20.0271 28.4591 -25.3881 36.3669 -29.1344 45.18C-33.0196 54.316 -34.9873 64.0156 -34.9873 74C-34.9873 83.9844 -33.0196 93.6839 -29.1344 102.82L-29.1471 102.82ZM-0.948327 74C-0.948326 63.3065 3.23954 53.2524 10.8395 45.6865C18.4521 38.1143 28.5749 33.942 39.341 33.942C50.1071 33.942 60.2298 38.1143 67.8424 45.6865C75.4424 53.2524 79.6303 63.3065 79.6303 74C79.6303 84.6935 75.4424 94.7476 67.8424 102.313C60.2298 109.886 50.1071 114.058 39.341 114.058C28.5749 114.058 18.4521 109.886 10.8395 102.313C3.23954 94.7476 -0.948328 84.6935 -0.948327 74ZM168.711 74C168.711 63.3065 172.899 53.2524 180.499 45.6865C188.111 38.1143 198.234 33.942 209 33.942C219.766 33.942 229.889 38.1143 237.501 45.6865C245.101 53.2524 249.289 63.3065 249.289 74C249.289 84.6935 245.101 94.7476 237.501 102.313C229.889 109.886 219.766 114.058 209 114.058C198.234 114.058 188.111 109.886 180.499 102.313C172.899 94.7476 168.711 84.6935 168.711 74ZM338.363 74C338.363 63.3065 342.551 53.2524 350.151 45.6865C357.764 38.1143 367.887 33.942 378.653 33.942C389.419 33.942 399.542 38.1143 407.154 45.6865C414.754 53.2524 418.942 63.3065 418.942 74C418.942 84.6935 414.754 94.7476 407.154 102.313C399.542 109.886 389.419 114.058 378.653 114.058C367.887 114.058 357.764 109.886 350.151 102.313C342.551 94.7476 338.363 84.6935 338.363 74Z"
              fill="#F8FAFC"/>
    </g>
    <defs>
        <clipPath id="clip0_5215_6490">
            <rect width="488" height="148" fill="white" transform="translate(453 148) rotate(-180)"/>
        </clipPath>
    </defs>
</svg>
