<svg width="418" height="98" viewBox="0 0 418 98" fill="none" xmlns="http://www.w3.org/2000/svg">
    <path d="M90.8987 42.984C86.5452 34.6028 80.3121 27.0769 72.3811 20.6139C64.45 14.1559 55.2038 9.07963 44.9095 5.53686C34.2423 1.86249 22.9201 0 11.2553 0C-0.409592 0 -11.7318 1.86249 -22.399 5.53686C-32.6933 9.08469 -41.9344 14.1559 -49.8706 20.6139C-57.8016 27.0719 -64.0347 34.5978 -68.3882 42.984C-72.8979 51.6739 -75.1855 60.8902 -75.1855 70.3849C-75.1855 79.8795 -72.8979 89.1009 -68.3882 97.7857C-64.0347 106.167 -57.8016 113.693 -49.8706 120.156C-41.9395 126.614 -32.6933 131.69 -22.399 135.233C-11.7318 138.907 -0.409592 140.77 11.2553 140.77C22.9201 140.77 34.2373 138.907 44.9095 135.233C55.2038 131.685 64.45 126.614 72.3811 120.156C80.3121 113.698 86.5452 106.172 90.8987 97.7857C95.4084 89.1009 97.6961 79.8795 97.6961 70.3849C97.6961 60.8902 95.4084 51.6689 90.8987 42.984ZM49.2378 101.313C39.0947 109.573 25.6058 114.123 11.2553 114.123C-3.09528 114.123 -16.5791 109.573 -26.7273 101.313C-36.8704 93.0536 -42.4585 82.071 -42.4585 70.3849C-42.4585 58.6988 -36.8704 47.7212 -26.7273 39.4564C-16.5842 31.1967 -3.09528 26.6467 11.2553 26.6467C25.6058 26.6467 39.0896 31.1967 49.2378 39.4564C59.3809 47.7162 64.969 58.6988 64.969 70.3849C64.969 82.071 59.3809 93.0485 49.2378 101.313Z"
          fill="#F8FAFC"/>
    <path d="M14.8948 85.8806C23.4101 83.8619 28.6839 75.2918 26.6741 66.7388C24.6643 58.1858 16.132 52.8886 7.61664 54.9073C-0.898707 56.926 -6.17249 65.4961 -4.16269 74.0491C-2.15288 82.6022 6.37943 87.8993 14.8948 85.8806Z"
          fill="#F8FAFC"/>
    <path d="M289.141 42.984C284.787 34.6028 278.554 27.0769 270.623 20.6139C262.692 14.1559 253.446 9.07963 243.152 5.53686C232.484 1.86249 221.162 0 209.497 0C197.833 0 186.51 1.86249 175.843 5.53686C165.549 9.08469 156.308 14.1559 148.372 20.6139C140.441 27.0719 134.208 34.5978 129.854 42.984C125.344 51.6739 123.057 60.8902 123.057 70.3849C123.057 79.8795 125.344 89.1009 129.854 97.7857C134.208 106.167 140.441 113.693 148.372 120.156C156.303 126.614 165.549 131.69 175.843 135.233C186.51 138.907 197.833 140.77 209.497 140.77C221.162 140.77 232.479 138.907 243.152 135.233C253.446 131.685 262.692 126.614 270.623 120.156C278.554 113.698 284.787 106.172 289.141 97.7857C293.651 89.1009 295.938 79.8795 295.938 70.3849C295.938 60.8902 293.651 51.6689 289.141 42.984ZM247.48 101.313C237.337 109.573 223.848 114.123 209.497 114.123C195.147 114.123 181.663 109.573 171.515 101.313C161.372 93.0536 155.784 82.071 155.784 70.3849C155.784 58.6988 161.372 47.7212 171.515 39.4564C181.658 31.1967 195.147 26.6467 209.497 26.6467C223.848 26.6467 237.332 31.1967 247.48 39.4564C257.623 47.7162 263.211 58.6988 263.211 70.3849C263.211 82.071 257.623 93.0485 247.48 101.313Z"
          fill="#F8FAFC"/>
    <path d="M213.137 85.8806C221.652 83.8619 226.926 75.2918 224.916 66.7388C222.906 58.1858 214.374 52.8886 205.859 54.9073C197.343 56.926 192.07 65.4961 194.08 74.0491C196.089 82.6022 204.622 87.8993 213.137 85.8806Z"
          fill="#F8FAFC"/>
    <path d="M487.389 42.984C483.035 34.6028 476.802 27.0769 468.871 20.6139C460.94 14.1559 451.694 9.07963 441.4 5.53686C430.733 1.86249 419.41 0 407.745 0C396.081 0 384.758 1.86249 374.091 5.53686C363.797 9.08469 354.556 14.1559 346.62 20.6139C338.689 27.0719 332.456 34.5978 328.102 42.984C323.592 51.6739 321.305 60.8902 321.305 70.3849C321.305 79.8795 323.592 89.1009 328.102 97.7857C332.456 106.167 338.689 113.693 346.62 120.156C354.551 126.614 363.797 131.69 374.091 135.233C384.758 138.907 396.081 140.77 407.745 140.77C419.41 140.77 430.728 138.907 441.4 135.233C451.694 131.685 460.94 126.614 468.871 120.156C476.802 113.698 483.035 106.172 487.389 97.7857C491.899 89.1009 494.186 79.8795 494.186 70.3849C494.186 60.8902 491.899 51.6689 487.389 42.984ZM445.728 101.313C435.585 109.573 422.096 114.123 407.745 114.123C393.395 114.123 379.911 109.573 369.763 101.313C359.62 93.0536 354.032 82.071 354.032 70.3849C354.032 58.6988 359.62 47.7212 369.763 39.4564C379.906 31.1967 393.395 26.6467 407.745 26.6467C422.096 26.6467 435.58 31.1967 445.728 39.4564C455.871 47.7162 461.459 58.6988 461.459 70.3849C461.459 82.071 455.871 93.0485 445.728 101.313Z"
          fill="#F8FAFC"/>
    <path d="M411.385 85.8806C419.9 83.8619 425.174 75.2918 423.164 66.7388C421.155 58.1858 412.622 52.8886 404.107 54.9073C395.592 56.926 390.318 65.4961 392.328 74.0491C394.337 82.6022 402.87 87.8993 411.385 85.8806Z"
          fill="#F8FAFC"/>
</svg>
