<svg width="104" height="100" viewBox="0 0 104 100" fill="none" xmlns="http://www.w3.org/2000/svg">
<path d="M42.6777 23.5293C47.3581 23.5293 51.1523 19.7294 51.1523 15.042C51.1523 10.3546 47.3581 6.55469 42.6777 6.55469C37.9973 6.55469 34.2031 10.3546 34.2031 15.042C34.2031 19.7294 37.9973 23.5293 42.6777 23.5293Z" stroke="#61C3A8" stroke-width="2.5" stroke-linecap="round" stroke-linejoin="round"/>
<path d="M23.3301 49.6797L23.2666 49.8788" stroke="#61C3A8" stroke-width="2.5" stroke-linecap="round" stroke-linejoin="round"/>
<path d="M43.2881 39.0781L53.0634 47.4679H68.9575" stroke="#61C3A8" stroke-width="2.5" stroke-linecap="round" stroke-linejoin="round"/>
<path d="M43.2882 39.0779L39.1611 35.5312" stroke="#61C3A8" stroke-width="2.5" stroke-linecap="round" stroke-linejoin="round"/>
<path d="M68.957 47.4654C71.1519 47.4654 72.9317 45.6858 72.9317 43.4866C72.9317 41.2875 71.1519 39.5078 68.957 39.5078" stroke="#61C3A8" stroke-width="2.5" stroke-linecap="round" stroke-linejoin="round"/>
<path d="M68.0205 2V39.5085" stroke="#61C3A8" stroke-width="2.5" stroke-linecap="round" stroke-linejoin="round"/>
<path d="M68.0928 47.9375L68.936 72.3782" stroke="#61C3A8" stroke-width="2.5" stroke-linecap="round" stroke-linejoin="round"/>
<path d="M31.0889 26.8047C30.9787 26.953 30.8855 27.1225 30.7881 27.2793" stroke="#61C3A8" stroke-width="2.5" stroke-linecap="round" stroke-linejoin="round"/>
<path d="M30.7877 27.2812C30.3725 27.9338 30.0165 28.6372 29.8004 29.4211L23.3301 49.6796" stroke="#61C3A8" stroke-width="2.5" stroke-linecap="round" stroke-linejoin="round"/>
<path d="M30.8516 27.082L30.7881 27.2812" stroke="#61C3A8" stroke-width="2.5" stroke-linecap="round" stroke-linejoin="round"/>
<path d="M68.9571 39.51H57.0377C57.0377 39.51 45.1182 25.582 39.5334 23.8617C39.5038 23.8532 39.4741 23.8532 39.4487 23.8489C36.2241 23.0311 32.9572 24.2981 31.0928 26.8066" stroke="#61C3A8" stroke-width="2.5" stroke-linecap="round" stroke-linejoin="round"/>
<path d="M43.2885 39.0781L39.4961 50.4425L51.4876 56.4171C53.3351 57.3366 54.4411 59.2815 54.2928 61.3366L53.0089 78.9934" stroke="#61C3A8" stroke-width="2.5" stroke-linecap="round" stroke-linejoin="round"/>
<path d="M23.2669 49.8789C21.0762 56.023 23.2033 60.2179 27.6524 61.3535C34.2033 63.023 44.3728 64.7179 44.3728 64.7179L44.6778 82.201" stroke="#61C3A8" stroke-width="2.5" stroke-linecap="round" stroke-linejoin="round"/>
<path d="M22.4326 54.293L23.2674 71.3438L14.6699 93.7379" stroke="#61C3A8" stroke-width="2.5" stroke-linecap="round" stroke-linejoin="round"/>
<path d="M14.6697 93.7383L14.3604 94.5434" stroke="#61C3A8" stroke-width="2.5" stroke-linecap="round" stroke-linejoin="round"/>
<path d="M33.1991 63.0195V71.6848C33.1991 72.7653 32.9067 73.8288 32.3516 74.7568L25.0508 89.7483" stroke="#61C3A8" stroke-width="2.5" stroke-linecap="round" stroke-linejoin="round"/>
<path d="M14.6696 93.7383L2 98.6112" stroke="#61C3A8" stroke-width="2.5" stroke-linecap="round" stroke-linejoin="round"/>
<path d="M68.102 73.1875L53.0088 78.9926" stroke="#61C3A8" stroke-width="2.5" stroke-linecap="round" stroke-linejoin="round"/>
<path d="M44.6782 82.1953L25.0469 89.7461" stroke="#61C3A8" stroke-width="2.5" stroke-linecap="round" stroke-linejoin="round"/>
<path d="M102 98.6112L69.7969 73.1875" stroke="#61C3A8" stroke-width="2.5" stroke-linecap="round" stroke-linejoin="round"/>
<path d="M67.9834 10.4766C77.6571 -0.752218 87.3479 19.8664 97.0555 8.6376C96.9707 14.2859 96.8817 19.9384 96.797 25.5868C87.2588 36.6291 77.7419 16.3876 68.2419 27.4257" stroke="#61C3A8" stroke-width="2.5" stroke-linecap="round" stroke-linejoin="round"/>
<path d="M46.0674 98.612L52.847 90.1374L61.3216 91.8324L68.1013 76.5781" stroke="#61C3A8" stroke-width="2.5" stroke-linecap="round" stroke-linejoin="round"/>
<path d="M71.4465 14.7812C71.2438 14.9723 70.9684 14.9723 70.748 14.7812H71.4465Z" fill="black"/>
<path d="M30.886 14.7812C30.6833 14.9723 30.4078 14.9723 30.1875 14.7812H30.886Z" fill="black"/>
<path d="M73.7562 14.7812C73.5931 14.9723 73.3265 14.9723 73.126 14.7812H73.7562Z" fill="black"/>
<path d="M33.1946 14.7812C33.0316 14.9744 32.765 14.9744 32.5645 14.7812H33.1946Z" fill="black"/>
<path d="M38.9888 76.7461C38.8808 77.9027 38.8852 79.0636 38.8984 80.2223C38.8984 80.252 38.8698 80.2817 38.8566 80.3136C38.8566 79.2036 38.8566 78.0958 38.8566 76.9859C38.8566 76.8862 38.8477 76.7758 38.9888 76.7461Z" fill="black"/>
<path d="M61.6488 32.6953C61.6488 33.0115 61.6488 33.3256 61.6488 33.6418C61.4439 33.4338 61.4439 32.9033 61.6488 32.6953Z" fill="black"/>
<path d="M18.7091 52.3633C18.7267 52.6434 18.7245 52.9193 18.5791 53.1761C18.6033 52.9023 18.4447 52.601 18.7091 52.3633Z" fill="black"/>
<path d="M59.8474 60.3134C59.832 60.0778 59.8254 59.8444 59.9796 59.6406C59.962 59.8698 60.0942 60.1266 59.8474 60.3134Z" fill="black"/>
<path d="M49.9121 37.9515C50.1214 37.7838 50.3682 37.8135 50.6106 37.8284C50.4167 38.0767 50.1479 37.9218 49.9121 37.9515Z" fill="black"/>
<path d="M36.4926 77.1557C36.5037 76.9244 36.4001 76.6718 36.6182 76.4766C36.594 76.7058 36.7438 76.9668 36.4926 77.1557Z" fill="black"/>
<path d="M67.3935 76.4766C67.6029 76.6739 67.5147 76.9222 67.5191 77.1557C67.2657 76.9668 67.4178 76.7058 67.3935 76.4766Z" fill="black"/>
<path d="M53.687 40.2313C53.4424 40.2462 53.2001 40.2568 52.9863 40.1061C53.2243 40.1231 53.4909 39.9936 53.687 40.2313Z" fill="black"/>
<path d="M37.7419 43.4766C37.7463 43.6527 37.7529 43.8289 37.7573 44.0071C37.5413 43.8458 37.5347 43.6527 37.7419 43.4766Z" fill="black"/>
</svg>
