<svg width="104" height="111" viewBox="0 0 104 111" fill="none" xmlns="http://www.w3.org/2000/svg">
<path d="M22.69 76.1359C27.4511 76.1359 31.3107 72.2763 31.3107 67.5152C31.3107 62.7541 27.4511 58.8945 22.69 58.8945C17.9289 58.8945 14.0693 62.7541 14.0693 67.5152C14.0693 72.2763 17.9289 76.1359 22.69 76.1359Z" stroke="#61C3A8" stroke-width="2.5" stroke-linecap="round" stroke-linejoin="round"/>
<path d="M19.2414 88.2057L22.7199 97.4859C23.7371 100.201 26.332 101.999 29.2328 101.999H41.4396C43.4612 101.999 45.1034 100.361 45.1034 98.335C45.1034 96.4858 43.7285 94.9298 41.8966 94.7013L32.4699 93.5246C31.7759 93.4384 31.2026 92.9471 31.0216 92.2704C30.4612 90.1798 29.1595 85.6281 27.8621 83.0333C26.1379 79.585 24.4138 76.1367 18.3793 76.1367C10.6207 76.1367 8.89655 81.3091 7.17241 88.2057L2 108.895" stroke="#61C3A8" stroke-width="2.5" stroke-linecap="round" stroke-linejoin="round"/>
<path d="M24.4141 100.277V108.898" stroke="#61C3A8" stroke-width="2.5" stroke-linecap="round" stroke-linejoin="round"/>
<path d="M24.4141 108.898H52.0003" stroke="#61C3A8" stroke-width="2.5" stroke-linecap="round" stroke-linejoin="round"/>
<path d="M34.7588 102H52.0002" stroke="#61C3A8" stroke-width="2.5" stroke-linecap="round" stroke-linejoin="round"/>
<path d="M81.3101 76.1359C86.0712 76.1359 89.9308 72.2763 89.9308 67.5152C89.9308 62.7541 86.0712 58.8945 81.3101 58.8945C76.5491 58.8945 72.6895 62.7541 72.6895 67.5152C72.6895 72.2763 76.5491 76.1359 81.3101 76.1359Z" stroke="#61C3A8" stroke-width="2.5" stroke-linecap="round" stroke-linejoin="round"/>
<path d="M52.0006 76.1359C56.7616 76.1359 60.6213 72.2763 60.6213 67.5152C60.6213 62.7541 56.7616 58.8945 52.0006 58.8945C47.2395 58.8945 43.3799 62.7541 43.3799 67.5152C43.3799 72.2763 47.2395 76.1359 52.0006 76.1359Z" stroke="#61C3A8" stroke-width="2.5" stroke-linecap="round" stroke-linejoin="round"/>
<path d="M84.7585 88.2057L81.2802 97.4859C80.2629 100.201 77.6681 101.999 74.7672 101.999H62.5603C60.5387 101.999 58.8965 100.361 58.8965 98.335C58.8965 96.4858 60.2716 94.9298 62.1035 94.7013L71.5301 93.5246C72.2241 93.4384 72.7974 92.9471 72.9784 92.2704C73.5388 90.1798 74.8404 85.6281 76.1379 83.0333C77.862 79.585 79.5861 76.1367 85.6206 76.1367C93.3792 76.1367 95.1034 81.3091 96.8275 88.2057L102 108.895" stroke="#61C3A8" stroke-width="2.5" stroke-linecap="round" stroke-linejoin="round"/>
<path d="M79.5859 100.277V108.898" stroke="#61C3A8" stroke-width="2.5" stroke-linecap="round" stroke-linejoin="round"/>
<path d="M79.5862 108.898H52" stroke="#61C3A8" stroke-width="2.5" stroke-linecap="round" stroke-linejoin="round"/>
<path d="M69.2414 102H52" stroke="#61C3A8" stroke-width="2.5" stroke-linecap="round" stroke-linejoin="round"/>
<path d="M38.207 93.3781V88.2057C38.207 81.5419 44.3838 76.1367 52.0001 76.1367C59.6165 76.1367 65.7932 81.5419 65.7932 88.2057V93.3781" stroke="#61C3A8" stroke-width="2.5" stroke-linecap="round" stroke-linejoin="round"/>
<path d="M45.9961 43.7734C46.9357 43.7864 47.8883 43.7993 48.8754 43.7993" stroke="#61C3A8" stroke-width="2.5" stroke-linecap="round" stroke-linejoin="round"/>
<path d="M48.8754 2C13.8064 2 10.6211 11.3577 10.6211 22.8965C10.6211 32.6853 12.9229 40.9009 35.0134 43.1681" stroke="#61C3A8" stroke-width="2.5" stroke-linecap="round" stroke-linejoin="round"/>
<path d="M85.125 12.582C86.7845 15.6251 87.1293 19.1424 87.1293 22.8967C87.1293 34.4398 83.9396 43.7932 48.875 43.7932" stroke="#61C3A8" stroke-width="2.5" stroke-linecap="round" stroke-linejoin="round"/>
<path d="M48.875 2C72.5431 2 81.6811 6.26292 85.125 12.5819" stroke="#61C3A8" stroke-width="2.5" stroke-linecap="round" stroke-linejoin="round"/>
<path d="M56.8447 50.4822L69.5991 57.1719L66.9267 50.1719" stroke="#61C3A8" stroke-width="2.5" stroke-linecap="round" stroke-linejoin="round"/>
<path d="M66.9268 50.1725C92.5302 48.4743 95.0991 39.9053 95.0991 29.5863C95.0991 22.5734 93.9095 16.3751 85.125 12.582" stroke="#61C3A8" stroke-width="2.5" stroke-linecap="round" stroke-linejoin="round"/>
<path d="M35.0132 43.1719L31.3408 52.1546L45.996 43.771" stroke="#61C3A8" stroke-width="2.5" stroke-linecap="round" stroke-linejoin="round"/>
<path d="M72.1305 21.4531C71.9277 21.6442 71.6521 21.6442 71.4316 21.4531H72.1305Z" fill="black"/>
<path d="M31.5456 21.4531C31.3427 21.6442 31.0672 21.6442 30.8467 21.4531H31.5456Z" fill="black"/>
<path d="M74.4411 21.4531C74.278 21.6442 74.0112 21.6442 73.8105 21.4531H74.4411Z" fill="black"/>
<path d="M33.8552 21.4531C33.692 21.6464 33.4252 21.6464 33.2246 21.4531H33.8552Z" fill="black"/>
<path d="M39.6529 83.457C39.5449 84.6143 39.5493 85.7759 39.5625 86.9353C39.5625 86.965 39.5338 86.9947 39.5206 87.0266C39.5206 85.916 39.5206 84.8076 39.5206 83.697C39.5206 83.5972 39.5118 83.4868 39.6529 83.457Z" fill="black"/>
<path d="M62.3266 39.3789C62.3266 39.6953 62.3266 40.0096 62.3266 40.326C62.1216 40.1179 62.1216 39.587 62.3266 39.3789Z" fill="black"/>
<path d="M19.3615 59.0586C19.3792 59.3389 19.377 59.6149 19.2314 59.8719C19.2557 59.598 19.0969 59.2964 19.3615 59.0586Z" fill="black"/>
<path d="M60.5232 67.013C60.5078 66.7773 60.5012 66.5437 60.6555 66.3398C60.6379 66.5692 60.7701 66.8261 60.5232 67.013Z" fill="black"/>
<path d="M50.583 44.639C50.7925 44.4713 51.0394 44.501 51.2819 44.5159C51.0879 44.7643 50.8189 44.6093 50.583 44.639Z" fill="black"/>
<path d="M37.1557 83.867C37.1668 83.6356 37.0631 83.3829 37.2814 83.1875C37.2572 83.4168 37.4071 83.678 37.1557 83.867Z" fill="black"/>
<path d="M68.0742 83.1875C68.2837 83.385 68.1955 83.6334 68.1999 83.867C67.9463 83.678 68.0985 83.4168 68.0742 83.1875Z" fill="black"/>
<path d="M54.3603 46.9189C54.1156 46.9338 53.873 46.9444 53.6592 46.7936C53.8973 46.8106 54.1641 46.6811 54.3603 46.9189Z" fill="black"/>
<path d="M38.406 50.168C38.4104 50.3442 38.417 50.5205 38.4214 50.6988C38.2054 50.5375 38.1988 50.3442 38.406 50.168Z" fill="black"/>
</svg>
