<svg width="104" height="92" viewBox="0 0 104 92" fill="none" xmlns="http://www.w3.org/2000/svg">
<path d="M16.7543 29.87C21.2813 29.87 24.9511 26.2002 24.9511 21.6733C24.9511 17.1464 21.2813 13.4766 16.7543 13.4766C12.2274 13.4766 8.55762 17.1464 8.55762 21.6733C8.55762 26.2002 12.2274 29.87 16.7543 29.87Z" stroke="#61C3A8" stroke-width="2.5" stroke-linecap="round" stroke-linejoin="round"/>
<path d="M47.9016 29.8672H16.7541C9.51229 29.8672 2 33.1459 2 42.9819V50.4082C2 54.0516 3.44675 57.5434 6.02462 60.1213L8.55738 62.6541V90.5229" stroke="#61C3A8" stroke-width="2.5" stroke-linecap="round" stroke-linejoin="round"/>
<path d="M72.4879 15.8568C66.492 15.7666 61.6437 20.4346 61.5125 26.3158C61.4429 29.3486 62.6929 31.5494 64.3732 33.8117C65.8445 35.7953 66.9223 36.0002 67.5248 38.9633" stroke="#61C3A8" stroke-width="2.5" stroke-linecap="round" stroke-linejoin="round"/>
<path d="M72.4883 15.8568C78.4842 15.7666 83.3285 20.4346 83.4637 26.3158C83.5334 29.3486 82.2834 31.5494 80.6031 33.8117C79.1317 35.7953 77.8326 36.0002 77.2301 38.9633" stroke="#61C3A8" stroke-width="2.5" stroke-linecap="round" stroke-linejoin="round"/>
<path d="M77.2299 38.9609L77.197 38.965H67.6807" stroke="#61C3A8" stroke-width="2.5" stroke-linecap="round" stroke-linejoin="round"/>
<path d="M72.4883 46.2601H75.0334L77.2301 42.6126V38.9609" stroke="#61C3A8" stroke-width="2.5" stroke-linecap="round" stroke-linejoin="round"/>
<path d="M67.5244 38.9609V42.6126L69.9383 46.2601H72.3768" stroke="#61C3A8" stroke-width="2.5" stroke-linecap="round" stroke-linejoin="round"/>
<path d="M72.4922 8.55859V10.1979" stroke="#61C3A8" stroke-width="2.5" stroke-linecap="round" stroke-linejoin="round"/>
<path d="M85.2419 13.8398L84.082 14.9997" stroke="#61C3A8" stroke-width="2.5" stroke-linecap="round" stroke-linejoin="round"/>
<path d="M90.5241 26.5898H88.8848" stroke="#61C3A8" stroke-width="2.5" stroke-linecap="round" stroke-linejoin="round"/>
<path d="M85.2419 39.3395L84.082 38.1797" stroke="#61C3A8" stroke-width="2.5" stroke-linecap="round" stroke-linejoin="round"/>
<path d="M59.7373 39.3395L60.8972 38.1797" stroke="#61C3A8" stroke-width="2.5" stroke-linecap="round" stroke-linejoin="round"/>
<path d="M54.459 26.5898H56.0983" stroke="#61C3A8" stroke-width="2.5" stroke-linecap="round" stroke-linejoin="round"/>
<path d="M59.7373 13.8398L60.8972 14.9997" stroke="#61C3A8" stroke-width="2.5" stroke-linecap="round" stroke-linejoin="round"/>
<path d="M24.9512 90.5241V39.7045L47.902 36.4258" stroke="#61C3A8" stroke-width="2.5" stroke-linecap="round" stroke-linejoin="round"/>
<path d="M16.7539 64.2969V90.5264" stroke="#61C3A8" stroke-width="2.5" stroke-linecap="round" stroke-linejoin="round"/>
<path d="M42.9834 28.2295V2H102V54.459H42.9834V44.6229" stroke="#61C3A8" stroke-width="2.5" stroke-linecap="round" stroke-linejoin="round"/>
<path d="M64.2947 54.4609L52.8193 80.6904" stroke="#61C3A8" stroke-width="2.5" stroke-linecap="round" stroke-linejoin="round"/>
<path d="M80.6885 54.4609L92.1639 80.6904" stroke="#61C3A8" stroke-width="2.5" stroke-linecap="round" stroke-linejoin="round"/>
</svg>
