<svg width="955" height="211" viewBox="0 0 955 211" fill="none" xmlns="http://www.w3.org/2000/svg">
<path d="M298.232 32.6141C296.483 26.3097 293.071 20.5623 288.335 15.9443C283.599 11.3263 277.705 7.99892 271.24 6.29362C247.572 0 152.326 0 152.326 0C152.326 0 57.076 0.190991 33.4117 6.48461C26.9472 8.19019 21.0538 11.5177 16.3183 16.1356C11.5829 20.7536 8.17076 26.5009 6.4218 32.805C-0.736973 73.8136 -3.51431 136.297 6.61765 175.663C8.36661 181.967 11.7787 187.714 16.5142 192.332C21.2496 196.95 27.1431 200.278 33.6076 201.983C57.2737 208.277 152.522 208.277 152.522 208.277C152.522 208.277 247.77 208.277 271.436 201.983C277.901 200.278 283.794 196.95 288.53 192.332C293.265 187.714 296.677 181.967 298.426 175.663C305.975 134.598 308.303 72.1529 298.23 32.6159" fill="#FF0000"/>
<path d="M121.978 148.779L200.993 104.149L121.978 59.5172V148.779Z" fill="white"/>
<path d="M916.256 60.4596C926.621 60.4596 934.444 62.3658 939.92 65.9892C945.397 69.6138 949.309 75.3363 951.656 83.1566C954.003 90.9763 954.98 101.655 954.98 115.389V137.706H904.716V144.57L905.5 163.453C906.085 167.649 907.064 170.702 908.628 172.608C910.194 174.516 912.735 175.469 916.06 175.469C920.559 175.469 923.689 173.754 925.252 170.321C927.013 166.887 927.795 161.165 927.99 153.345L954.003 154.871C954.199 156.015 954.199 157.541 954.199 159.448C954.199 171.464 950.873 180.429 944.028 186.341C937.182 192.253 927.795 195.305 915.473 195.305C900.609 195.305 890.244 190.728 884.376 181.765C878.51 172.799 875.38 158.684 875.38 139.803V116.724C876.044 84.3007 881.891 60.5541 916.256 60.4596ZM554.625 62.9388V158.495C554.625 164.217 555.21 168.413 556.579 170.893C559.357 176.195 566.555 174.84 570.466 172.228C572.724 170.739 574.544 168.701 575.747 166.316V62.937H605.671V193.206H582.2L579.658 177.184H579.072C572.619 189.2 563.033 195.303 550.322 195.303C530.755 195.256 525.967 181.508 524.827 167.546L524.753 166.562C524.612 164.447 524.529 162.329 524.505 160.21V62.9388H554.625ZM708.939 62.9388V158.495C708.939 164.217 709.525 168.413 710.894 170.893C713.673 176.195 720.869 174.84 724.781 172.228C727.038 170.739 728.858 168.701 730.061 166.316V62.937H759.985V193.206H736.515L733.973 177.184H733.387C726.933 189.2 717.348 195.303 704.636 195.303C685.07 195.256 680.282 181.508 679.142 167.546L679.067 166.562C678.926 164.447 678.844 162.329 678.819 160.21V62.9388H708.939ZM467.785 60.4596C477.564 60.4596 485.583 62.3658 491.451 66.3712C497.317 70.3766 501.816 76.481 504.554 84.8719C507.292 93.2646 508.662 104.517 508.662 118.441V137.322C508.662 151.246 507.292 162.309 504.554 170.7C501.816 179.094 497.513 185.197 491.451 189.202C485.389 193.017 477.173 195.114 467.003 195.114C456.441 195.305 448.226 193.208 442.164 189.393C436.102 185.388 431.797 179.283 429.257 170.893C426.712 162.5 425.539 151.437 425.539 137.515V118.63C425.539 104.706 426.908 93.2628 429.842 84.8701C432.776 76.2882 437.273 70.1837 443.533 66.3712C449.791 62.555 457.81 60.4577 467.785 60.4577M806.926 8.19885V76.8612H807.121C809.86 71.9027 813.379 67.8973 818.27 64.8451C822.837 61.8521 828.217 60.2584 833.72 60.2686C840.957 60.2686 846.433 62.1748 850.54 65.7982C854.648 69.6144 857.582 75.526 859.341 83.7278C861.047 91.673 862.017 102.661 862.077 116.518L862.079 117.87V138.468C862.079 157.731 859.536 172.037 854.842 181.192C849.955 190.346 842.522 194.925 832.351 194.925C826.68 194.925 821.594 193.59 816.901 191.11C812.751 188.75 809.31 185.368 806.922 181.303L806.534 180.619H805.948L802.818 193.017H777.979V8.20067L806.926 8.19885ZM687.228 14.8745V38.5228H657.5V193.206H628.163V38.5246H598.239V14.8763L687.228 14.8745ZM364.712 14.8745L364.731 14.9472C365.016 16.1859 368.97 33.3297 373.32 53.3037L373.663 54.8862L374.182 57.2782L374.529 58.8843L374.702 59.6901L375.049 61.3054L375.223 62.1148L375.568 63.7355L376.071 66.1056C379.009 79.937 381.813 93.8085 383.489 103.755H384.273C385.879 94.8325 388.212 83.4149 390.7 71.7571L391.353 68.7122C391.68 67.1867 392.01 65.6636 392.342 64.143L392.853 61.7838C396.232 46.335 399.712 30.9074 403.293 15.502L403.349 15.2564L403.438 14.8745H433.362L398.743 135.226V193.017H369.211V135.415H369.015L334.788 14.8726L364.712 14.8745ZM467.197 80.6755C463.09 80.6755 460.352 82.7746 458.593 87.162C456.834 91.5493 456.051 98.2231 456.051 107.571V148.196C456.051 157.732 456.832 164.788 458.397 168.986C459.963 173.182 462.896 175.28 467.197 175.28C471.305 175.28 474.239 173.182 475.999 168.986C477.76 164.788 478.542 157.732 478.542 148.196V107.569C478.542 98.2231 477.758 91.3565 475.999 87.1601C474.239 82.7746 471.305 80.6755 467.197 80.6755ZM812.206 84.4917C809.822 86.6381 808.127 89.2847 807.118 92.5934L806.926 93.2646V167.267C809.35 171.273 812.794 173.943 818.856 174.134C821.984 174.134 824.527 172.99 826.484 170.702C828.439 168.413 829.808 164.598 830.59 159.257C831.342 154.131 831.733 147.071 831.763 138.077V119.967C831.763 109.668 831.371 101.848 830.786 96.3168C830.002 90.7853 829.027 86.78 827.266 84.4917C823.862 79.7224 816.509 79.7806 812.206 84.4917ZM915.671 80.1044C912.344 80.2948 909.997 81.2485 908.628 82.9656C907.064 84.8719 906.085 87.7331 905.5 91.9295C904.923 96.0403 904.725 110.41 904.716 110.985V120.349H926.621V112.091V112.249C926.608 115.136 926.547 110.574 926.412 104.973L926.394 104.22C926.271 99.2981 926.092 93.8103 925.84 91.9295C925.252 87.5421 924.273 84.4899 922.71 82.7746C921.145 81.0575 918.799 80.1044 915.669 80.1044" fill="#282828"/>
</svg>
